<svg xmlns="http://www.w3.org/2000/svg" width="50.5" height="43.548" viewBox="0 0 50.5 43.548">
  <g id="Grupo_2535" data-name="Grupo 2535" transform="translate(0.25 0.265)">
    <path id="Trazado_5473" data-name="Trazado 5473" d="M43.56,2.455C37.367-.815,30.747,1.52,26,8.53,21.251,1.518,14.632-.816,8.44,2.456A14.2,14.2,0,0,0,1,15.122V17.2C1,27.66,11.608,39.173,25.677,43.975a.986.986,0,0,0,.646,0C40.392,39.173,51,27.66,51,17.2V15.122A14.2,14.2,0,0,0,43.56,2.455ZM3,15.122a12.2,12.2,0,0,1,6.373-10.9c6.2-3.277,12.125.551,15.769,6.682a1.038,1.038,0,0,0,1.718,0c4.187-7.046,10.225-9.6,15.767-6.683A12.2,12.2,0,0,1,49,15.122V17.2a15.209,15.209,0,0,1-.387,3.333H25a1,1,0,0,0-.922.612l-2.759,6.552-3.341-15.87a1,1,0,0,0-1.931-.1l-2.779,8.8H3.387A15.209,15.209,0,0,1,3,17.2ZM26,41.971C15.276,38.215,6.736,30.458,3.96,22.529H14a1,1,0,0,0,.953-.7l1.854-5.866,3.214,15.271a1,1,0,0,0,1.9.182l3.742-8.888H48.04C45.264,30.458,36.724,38.215,26,41.971Z" transform="translate(-1 -1)" fill="#060094" stroke="#060094" stroke-width="0.5"/>
  </g>
</svg>
