<svg xmlns="http://www.w3.org/2000/svg" width="70" height="70" viewBox="0 0 70 70">
  <g id="Grupo_1755" data-name="Grupo 1755" transform="translate(0 0)">
    <g id="Grupo_1747" data-name="Grupo 1747" transform="translate(0 0)">
      <g id="Icon" transform="translate(0)">
        <g id="dog-training">
          <g id="Grupo_472" data-name="Grupo 472">
            <ellipse id="Elipse_20" data-name="Elipse 20" cx="1.129" cy="1.129" rx="1.129" ry="1.129" transform="translate(35 18.065)" fill="#353631"/>
            <path id="Trazado_1490" data-name="Trazado 1490" d="M226.905,145.666l-1.189-.238a6.762,6.762,0,0,1-4.08-2.566,10.6,10.6,0,0,0-3.848-13.106l-7.665-5.11a10.14,10.14,0,0,1-4.525-8.455v-3.174a3.29,3.29,0,0,0,2.258-3.113c0-.091,0-.182-.011-.274L206.9,98.242a3.407,3.407,0,0,0-3.376-3.106H200.9a3.4,3.4,0,0,0-3.177,2.258h-1.546a5.61,5.61,0,0,0-3.991,1.654l-1.637,1.636-4.854-.97a3.239,3.239,0,0,0-.624-.062,3.187,3.187,0,0,0-3.184,3.183v4.333a4.509,4.509,0,0,0,3.421,4.382l4.755,1.189a1.129,1.129,0,0,1,.856,1.1v4.828l-.892,2.675-2.527-1.011a4.915,4.915,0,0,0-6.743,4.564v4.967a3.665,3.665,0,0,0,7.22.89l.335-1.341.522.209a12.746,12.746,0,0,0,2.214,5.356l1.871,2.619-.759,7.223h-.113a4.521,4.521,0,0,0-4.516,4.516,2.26,2.26,0,0,0,2.258,2.258h4.516a2.26,2.26,0,0,0,2.258,2.258h12.419a3.391,3.391,0,0,0,3.387-3.387v-.4l1.619-.719a8.757,8.757,0,0,0,5.838,2.243h6.487a2.99,2.99,0,0,0,.588-5.922Zm-32-27.949h-1.725v-2.258H194.9a22.636,22.636,0,0,0,8.436-1.651v2.059A20.355,20.355,0,0,1,194.9,117.717Zm4.873-19.287a1.134,1.134,0,0,1,1.125-1.035h2.618a1.136,1.136,0,0,1,1.126,1.035L205.6,109.9a1.04,1.04,0,0,1-1.039,1.039h-4.7a1.04,1.04,0,0,1-1.039-1.039Zm-14.524,3.5.872.175a3.348,3.348,0,0,1-1.979,1.866v-1.134A.939.939,0,0,1,185.253,101.928Zm5.361,8.62-4.756-1.189a2.255,2.255,0,0,1-1.712-2.191v-.859a5.6,5.6,0,0,0,4.221-3.758l2.924.585,2.492-2.492a3.406,3.406,0,0,1,2.395-.992h1.231l-.831,9.979c-.008.09-.011.181-.011.272a3.294,3.294,0,0,0,1.9,2.976,20.209,20.209,0,0,1-3.565.321h-1.79A3.38,3.38,0,0,0,190.613,110.549Zm-6.189,20.717a1.408,1.408,0,0,1-1.407-1.407v-4.967a2.657,2.657,0,0,1,3.646-2.468l2.652,1.06a12.828,12.828,0,0,0-.636,3.637l-.327-.131-.937-1.874-2.02,1.01.943,1.884-.548,2.19A1.407,1.407,0,0,1,184.424,131.265Zm25.69,17.331v1.863a1.13,1.13,0,0,1-1.129,1.129H196.566a2.26,2.26,0,0,1,2.258-2.258h5.5l-4.538-6.806a5.693,5.693,0,0,1-.96-3.169,5.838,5.838,0,0,1,5.833-5.831,5.689,5.689,0,0,1,3.169.961l1.663,1.108,1.252-1.879-1.663-1.108a7.923,7.923,0,0,0-3.55-1.276,10.6,10.6,0,0,0-1.056-5.97l-.122-.245-2.02,1.01.122.245a8.451,8.451,0,0,1,.887,3.759,8.339,8.339,0,0,1-.111,1.27,8.1,8.1,0,0,0-6.664,7.956,7.943,7.943,0,0,0,1.339,4.421l2.2,3.3h-1.277a4.5,4.5,0,0,0-3.888,2.258h-5.144a2.26,2.26,0,0,1,2.258-2.258h2.145l2.06-19.58a7.088,7.088,0,0,1,2.028-4.253l.208-.208-1.594-1.6-.21.209a9.358,9.358,0,0,0-2.678,5.615l-.732,6.949-.389-.547a10.569,10.569,0,0,1-1.425-9.482l1.4-4.2h2.04a22.64,22.64,0,0,0,8.628-1.726,12.371,12.371,0,0,0,5.339,8.276l7.665,5.11a8.4,8.4,0,0,1-1.248,14.663Zm16.2.734H219.83a6.483,6.483,0,0,1-3.5-1.038,10.61,10.61,0,0,0,4.1-3.362,9.009,9.009,0,0,0,4.841,2.711l1.19.238a.733.733,0,0,1-.145,1.451Z" transform="translate(-159.308 -83.846)" fill="#353631"/>
            <path id="Trazado_1491" data-name="Trazado 1491" d="M22.581,12.419V5.645a3.391,3.391,0,0,0-3.387-3.387H17.857A3.383,3.383,0,0,0,14.677,0H8.141A5.616,5.616,0,0,0,5.011.948L3.045,2.258H0V4.516H3.729L6.264,2.827a3.363,3.363,0,0,1,1.878-.569h6.536a1.129,1.129,0,0,1,0,2.258H9.464l-.431.863a2.511,2.511,0,0,1-2.258,1.4V9.032a4.776,4.776,0,0,0,2.258-.567v5.083H0v2.258H19.194a3.391,3.391,0,0,0,3.387-3.387Zm-2.258,0a1.13,1.13,0,0,1-1.129,1.129h-7.9V6.774h3.387a3.383,3.383,0,0,0,3.179-2.258h1.337a1.13,1.13,0,0,1,1.129,1.129v6.774Z" transform="translate(0)" fill="#353631"/>
          </g>
        </g>
      </g>
    </g>
  </g>
</svg>
