<svg xmlns="http://www.w3.org/2000/svg" width="40.5" height="49.5" viewBox="0 0 40.5 49.5">
  <g id="Grupo_2529" data-name="Grupo 2529" transform="translate(0.25 0.25)">
    <path id="Trazado_5460" data-name="Trazado 5460" d="M39.5,1H5.5a3,3,0,0,0-3,3V47a3,3,0,0,0,3,3h34a3,3,0,0,0,3-3V4A3,3,0,0,0,39.5,1Zm1,46a1,1,0,0,1-1,1H5.5a1,1,0,0,1-1-1V4a1,1,0,0,1,1-1h34a1,1,0,0,1,1,1Z" transform="translate(-2.5 -1)" fill="#060094" stroke="#060094" stroke-width="0.5"/>
    <path id="Trazado_5461" data-name="Trazado 5461" d="M22.5,30a7,7,0,1,0-7-7A7.008,7.008,0,0,0,22.5,30Zm0-12a5,5,0,1,1-5,5A5.006,5.006,0,0,1,22.5,18Z" transform="translate(-2.5 -1)" fill="#060094" stroke="#060094" stroke-width="0.5"/>
    <path id="Trazado_5462" data-name="Trazado 5462" d="M22.5,14a4,4,0,1,0-4-4A4,4,0,0,0,22.5,14Zm0-6a2,2,0,1,1-2,2A2,2,0,0,1,22.5,8Z" transform="translate(-2.5 -1)" fill="#060094" stroke="#060094" stroke-width="0.5"/>
    <path id="Trazado_5463" data-name="Trazado 5463" d="M33.326,17.681A4,4,0,1,0,28.2,15.29,4.006,4.006,0,0,0,33.326,17.681Zm-2.053-5.639a2,2,0,1,1-1.2,2.564A2,2,0,0,1,31.273,12.042Z" transform="translate(-2.5 -1)" fill="#060094" stroke="#060094" stroke-width="0.5"/>
    <path id="Trazado_5464" data-name="Trazado 5464" d="M11.675,17.681a4,4,0,1,0-2.391-5.127A4.006,4.006,0,0,0,11.675,17.681Zm-.512-4.444a2,2,0,1,1,1.2,2.565A2,2,0,0,1,11.163,13.237Z" transform="translate(-2.5 -1)" fill="#060094" stroke="#060094" stroke-width="0.5"/>
    <path id="Trazado_5465" data-name="Trazado 5465" d="M36.5,33H8.5a1,1,0,0,0,0,2h28a1,1,0,0,0,0-2Z" transform="translate(-2.5 -1)" fill="#060094" stroke="#060094" stroke-width="0.5"/>
    <path id="Trazado_5466" data-name="Trazado 5466" d="M36.5,38H8.5a1,1,0,0,0,0,2h28a1,1,0,0,0,0-2Z" transform="translate(-2.5 -1)" fill="#060094" stroke="#060094" stroke-width="0.5"/>
    <path id="Trazado_5467" data-name="Trazado 5467" d="M36.5,43H8.5a1,1,0,0,0,0,2h28a1,1,0,0,0,0-2Z" transform="translate(-2.5 -1)" fill="#060094" stroke="#060094" stroke-width="0.5"/>
  </g>
</svg>
