<svg xmlns="http://www.w3.org/2000/svg" width="72.5" height="69.26" viewBox="0 0 72.5 69.26">
  <g id="Group_4298" data-name="Group 4298" transform="translate(0.249 -18.976)">
    <path id="Ellipse_41" data-name="Ellipse 41" d="M0,69.182Z" transform="translate(11.266 4.102)" fill="#fff"/>
    <g id="Icon-4" transform="translate(1.001 20.236)">
      <path id="Icon_Grooming" data-name="Icon Grooming" d="M435.262,589.034H425.35a2.06,2.06,0,0,1,0-4.118h6.431V580.8H425.35a2.059,2.059,0,0,1,0-4.117h6.431v-4.117H425.35a2.059,2.059,0,0,1,0-4.117h6.431v-4.117H425.35a2.058,2.058,0,0,1,0-4.115h6.431V556.1H425.35a2.058,2.058,0,0,1,0-4.116h6.431v-4.118H425.35a2.059,2.059,0,0,1,0-4.117h6.431v-4.117H425.35a2.059,2.059,0,0,1,0-4.117h6.431V531.4H425.35a2.059,2.059,0,0,1,0-4.117h12.583a6.169,6.169,0,0,1,6.152,6.176v49.41a6.171,6.171,0,0,1-6.152,6.176Zm-36.57-10.294a10.168,10.168,0,0,1,1.174-4.679l-.97-2.141,4.422-9.749,3.049,6.646a9.968,9.968,0,0,1,2.578-.37,10.293,10.293,0,1,1-10.252,10.335v-.043Zm4.1,0a6.152,6.152,0,1,0,6.152-6.175A6.152,6.152,0,0,0,402.793,578.74Zm-28.708,0a10.28,10.28,0,0,1,10.252-10.292,10.045,10.045,0,0,1,2.579.37l18.5-40.329a2.047,2.047,0,0,1,2.707-1.031,2.012,2.012,0,0,1,.66.471,8.253,8.253,0,0,1,1.338,9.306l-16.707,36.828a10.244,10.244,0,1,1-19.333,4.677Zm15.9-26.45-6.827-15.054a8.286,8.286,0,0,1,1.338-9.308,2.05,2.05,0,0,1,1.5-.651,1.982,1.982,0,0,1,.333.028,2.055,2.055,0,0,1,1.535,1.183l6.52,14.214-4.395,9.588h0Z" transform="translate(-374.085 -527.278)" fill="none" stroke="#353631" stroke-width="2.5"/>
    </g>
  </g>
</svg>
