<svg xmlns="http://www.w3.org/2000/svg" xmlns:xlink="http://www.w3.org/1999/xlink" width="70" height="70" viewBox="0 0 70 70">
  <defs>
    <clipPath id="clip-path">
      <rect id="Rectángulo_13" data-name="Rectángulo 13" width="19.607" height="18.873" fill="#353631"/>
    </clipPath>
  </defs>
  <g id="Grupo_1751" data-name="Grupo 1751" transform="translate(-7.36)">
    <g id="Grupo_1746" data-name="Grupo 1746" transform="translate(7.36)">
      <g id="nephrologist" transform="translate(0)">
        <path id="Trazado_1442" data-name="Trazado 1442" d="M4.385,405.222a1.023,1.023,0,0,0-1.426.257A16.53,16.53,0,0,0,0,414.939v3.688a1.024,1.024,0,1,0,2.049,0v-3.688a14.484,14.484,0,0,1,2.594-8.289A1.027,1.027,0,0,0,4.385,405.222Z" transform="translate(0 -349.679)" fill="#353631"/>
        <path id="Trazado_1443" data-name="Trazado 1443" d="M98.109,37.778A1.026,1.026,0,0,0,97.1,39.563a15.323,15.323,0,1,1-3.8-1.529,1.026,1.026,0,0,0,.5-1.99A17.463,17.463,0,0,0,72.731,48.163l-2.371-.969V43.206A13.274,13.274,0,0,0,75.89,32.438V31.162a4.716,4.716,0,0,0,3.26-7.845l.207-9.592a12.989,12.989,0,0,0-1.317-6,1.025,1.025,0,1,0-1.839.9,10.923,10.923,0,0,1,1.108,5.046l-.179,8.3a4.666,4.666,0,0,0-1.24-.237V20.5a3.474,3.474,0,0,0-.836-2.261,5.636,5.636,0,0,0-4.282-1.97H63.327a6.1,6.1,0,0,1-4.138-1.613L55.6,11.359a1.329,1.329,0,0,0-1.784-.018l-.853.753a10.005,10.005,0,0,0-3.379,7.5v2.15a4.677,4.677,0,0,0-.9.137l-.334-8.538A5.632,5.632,0,0,1,53.6,7.465l1.693-.12a2.8,2.8,0,0,0,1.337-.452l3.9-2.562A10.811,10.811,0,0,1,73.808,5.415,1.025,1.025,0,0,0,75.194,3.9,12.855,12.855,0,0,0,59.411,2.614l-3.9,2.562a.754.754,0,0,1-.359.121l-1.693.12a7.709,7.709,0,0,0-7.149,8l.373,9.539a4.717,4.717,0,0,0,2.91,8.2v.527a14.406,14.406,0,0,0,5.527,11.323V45.3a5.513,5.513,0,0,0-4.159,3.59L47.268,50.4a16.534,16.534,0,0,0-4.066,2.39,1.026,1.026,0,1,0,1.277,1.6A14.483,14.483,0,0,1,48.041,52.3l2.607-1.066v6.446a4.272,4.272,0,1,0,2.049,0V50.709c0-.107.006-.212.015-.316l2.806-1.147,5.908,10.311a1.5,1.5,0,0,0,1.3.755h0a1.5,1.5,0,0,0,1.3-.753l5.927-10.312,2.32.948A17.457,17.457,0,1,0,98.109,37.778ZM78.3,26.452A2.665,2.665,0,0,1,75.891,29.1V23.8A2.665,2.665,0,0,1,78.3,26.452ZM53.9,61.838a2.224,2.224,0,1,1-2.224-2.228A2.228,2.228,0,0,1,53.9,61.838ZM47.183,26.452A2.665,2.665,0,0,1,49.589,23.8v5.3A2.665,2.665,0,0,1,47.183,26.452Zm4.455,5.237v-12.1a7.951,7.951,0,0,1,2.685-5.957l.371-.327L57.8,16.166a8.142,8.142,0,0,0,5.522,2.153h7.446A3.591,3.591,0,0,1,73.5,19.574a1.418,1.418,0,0,1,.341.922V32.438A11.212,11.212,0,0,1,59.726,43.255,12.335,12.335,0,0,1,51.637,31.689ZM62.729,57.707l-5.593-9.76a1.319,1.319,0,0,0,.028-.258v-3.34a14.224,14.224,0,0,0,1.908.852c.026.009.053.018.08.025a13.287,13.287,0,0,0,7.942-.311,13.154,13.154,0,0,0,1.216-.5v3.278a1.327,1.327,0,0,0,.028.257Z" transform="translate(-36.968 -0.498)" fill="#353631"/>
        <g id="Grupo_27" data-name="Grupo 27" transform="translate(42.533 42.082)">
          <g id="Grupo_26" data-name="Grupo 26" transform="translate(0 0)" clip-path="url(#clip-path)">
            <path id="Trazado_148" data-name="Trazado 148" d="M17.179,13.968a4.707,4.707,0,0,0-.766-.937,7.835,7.835,0,0,0-1.179-.831,4.778,4.778,0,0,0-1.215-.544,7.407,7.407,0,0,0-1.73-.151,7.293,7.293,0,0,1-.987-.01,2.771,2.771,0,0,0-.915.187,5.316,5.316,0,0,0-2.735,1.774A11.458,11.458,0,0,0,5.887,16.4a8,8,0,0,0-.981,3.835,4.779,4.779,0,0,0,.657,2.439,2.654,2.654,0,0,0,3.868.972,7.96,7.96,0,0,0,1.071-.887c.353-.323.668-.688,1.022-1.011.427-.388.718-.461,1.12-.143a3.9,3.9,0,0,1,1.133.972,3.836,3.836,0,0,0,1.767,1.33,2.6,2.6,0,0,0,3.337-1.255,3.512,3.512,0,0,0,.611-2.446c0-.24-.019-.482,0-.719a3.428,3.428,0,0,0-.293-1.5,19.213,19.213,0,0,0-2.024-4.017" transform="translate(-2.249 -5.255)" fill="#353631"/>
            <path id="Trazado_149" data-name="Trazado 149" d="M7.919,2.963A2.318,2.318,0,0,0,8.942,5.33c.213.019.564-.055.713.086.338.318.5-.144.786-.08.464.1.76-.135.9-.6a3.806,3.806,0,0,1,.351-.659,1.3,1.3,0,0,0,.046-1.3,4.8,4.8,0,0,1-.227-.8A3.19,3.19,0,0,0,10.541.31,1.437,1.437,0,0,0,8.472.6a3.09,3.09,0,0,0-.554,2.009,1.382,1.382,0,0,1,0,.357" transform="translate(-3.617 0)" fill="#353631"/>
            <path id="Trazado_150" data-name="Trazado 150" d="M20.681,5.431a2.857,2.857,0,0,0,1.694.1.529.529,0,0,0,.3-.126c.609-.615,1.416-1.13,1.129-2.2.263-.781-.216-1.392-.524-2.006A1.294,1.294,0,0,0,21.219.937a4.03,4.03,0,0,0-1.333,3.3,1.287,1.287,0,0,0,.8,1.194" transform="translate(-9.115 -0.248)" fill="#353631"/>
            <path id="Trazado_151" data-name="Trazado 151" d="M32.944,9.271a1.661,1.661,0,0,0-1.712-1.413,1.323,1.323,0,0,0-1.19.492c-.1.11-.207.217-.318.318a1.731,1.731,0,0,0-.537,1.306c-.009.27-.006.54,0,.809A1.122,1.122,0,0,0,30.048,12c.106.037.234.008.342.044a1.845,1.845,0,0,0,2.048-.64c.275-.317.271-.677.424-1a1.972,1.972,0,0,0,.082-1.127" transform="translate(-13.38 -3.588)" fill="#353631"/>
            <path id="Trazado_152" data-name="Trazado 152" d="M3.454,12.489a.315.315,0,0,0,.125-.213,3.177,3.177,0,0,0-.5-2.217c-.315-.418-.649-.821-.952-1.2a7.247,7.247,0,0,0-.956.01.975.975,0,0,0-.6.248c-.443.583-.347,1.341-.564,2,.294.183.107.492.171.677a2.234,2.234,0,0,0,1.753,1.071c.277.318.511,0,.771-.034a1.739,1.739,0,0,0,.759-.342" transform="translate(0 -4.046)" fill="#353631"/>
          </g>
        </g>
      </g>
    </g>
  </g>
</svg>
