<svg id="Grupo_1960" data-name="Grupo 1960" xmlns="http://www.w3.org/2000/svg" xmlns:xlink="http://www.w3.org/1999/xlink" width="20" height="20" viewBox="0 0 20 20">
  <defs>
    <clipPath id="clip-path">
      <rect id="Rectángulo_298" data-name="Rectángulo 298" width="20" height="20" fill="none"/>
    </clipPath>
  </defs>
  <g id="Grupo_1592" data-name="Grupo 1592" transform="translate(0 0)" clip-path="url(#clip-path)">
    <path id="Trazado_2431" data-name="Trazado 2431" d="M2.114,51.471a1.127,1.127,0,0,0,.584-.027L7.05,50.126l3.674,1.891L6.372,53.334a1.131,1.131,0,0,1-.584.027.986.986,0,0,1-.226-.083L1.888,51.388a.98.98,0,0,0,.226.083" transform="translate(-1.315 -35.324)" fill="#060094"/>
    <path id="Trazado_2432" data-name="Trazado 2432" d="M36.273,1.259a1.058,1.058,0,0,0-.555-.873l3.674,1.891a1.058,1.058,0,0,1,.555.873l.45,4.585L36.723,5.844Z" transform="translate(-24.883 -0.272)" fill="#060094"/>
    <path id="Trazado_2433" data-name="Trazado 2433" d="M29.635,35.308a1.457,1.457,0,0,0,1.63-1.254l.811-4.735,4.012-2.557a1.376,1.376,0,0,0,.166-2.318l3.674,1.891a1.376,1.376,0,0,1-.166,2.318L35.75,31.21l-.811,4.735a1.457,1.457,0,0,1-1.63,1.254.966.966,0,0,1-.224-.082l-3.674-1.891a.979.979,0,0,0,.224.082" transform="translate(-20.489 -17.225)" fill="#060094"/>
    <path id="Trazado_2434" data-name="Trazado 2434" d="M.167,14.37l2.2-4.413L.491,6.034A1.5,1.5,0,0,1,1.852,3.975l4.29.276L9.333.51A1.3,1.3,0,0,1,10.6.028a1.035,1.035,0,0,1,.791.959l.45,4.585,3.849,1.611c.89.372.837,1.763-.09,2.354l-4.012,2.557-.811,4.735a1.458,1.458,0,0,1-1.63,1.254.977.977,0,0,1-.484-.275L5.734,14.8,1.382,16.12a1.129,1.129,0,0,1-.584.028A1.19,1.19,0,0,1,.167,14.37" transform="translate(0 0)" fill="#4d46ff"/>
    <path id="Trazado_2435" data-name="Trazado 2435" d="M.768,34.511a1.131,1.131,0,0,0,.584-.027L5.7,33.166l2.928,3.006a.977.977,0,0,0,.484.275,1.457,1.457,0,0,0,1.63-1.254l.811-4.735L15.569,27.9a1.562,1.562,0,0,0,.713-1.495,1.537,1.537,0,0,1-.657,1.739L11.613,30.7,10.8,35.438a1.457,1.457,0,0,1-1.63,1.254.977.977,0,0,1-.484-.275L5.76,33.411,1.409,34.728a1.129,1.129,0,0,1-.584.028,1.056,1.056,0,0,1-.788-.933,1.023,1.023,0,0,0,.731.688" transform="translate(-0.026 -18.608)" fill="#060094"/>
    <path id="Trazado_2436" data-name="Trazado 2436" d="M11.511.271a1.3,1.3,0,0,0-1.266.483L7.055,4.5l-4.29-.277A1.515,1.515,0,0,0,1.294,5.9,1.508,1.508,0,0,1,2.708,3.974L7,4.251,10.189.509A1.3,1.3,0,0,1,11.454.027a1.029,1.029,0,0,1,.785.923,1,1,0,0,0-.729-.678" transform="translate(-0.856 0)" fill="#3636e8"/>
  </g>
</svg>
