<svg id="Grupo_1962" data-name="Grupo 1962" xmlns="http://www.w3.org/2000/svg" xmlns:xlink="http://www.w3.org/1999/xlink" width="20" height="20" viewBox="0 0 20 20">
  <defs>
    <clipPath id="clip-path">
      <rect id="Rectángulo_299" data-name="Rectángulo 299" width="20" height="20" fill="none"/>
    </clipPath>
  </defs>
  <g id="Grupo_1594" data-name="Grupo 1594" transform="translate(0 0)" clip-path="url(#clip-path)">
    <path id="Trazado_2437" data-name="Trazado 2437" d="M13.449,55.589a1.064,1.064,0,0,0,.532-.233l3.578-2.836,4.065.579-3.578,2.836a1.066,1.066,0,0,1-.532.233.925.925,0,0,1-.238,0l-4.065-.579a.909.909,0,0,0,.238,0" transform="translate(-9.254 -36.175)" fill="#060094"/>
    <path id="Trazado_2438" data-name="Trazado 2438" d="M27.279.7A1.082,1.082,0,0,0,26.461.03l4.065.579a1.081,1.081,0,0,1,.818.669l2.013,4.381L29.292,5.08Z" transform="translate(-18.535 -0.021)" fill="#060094"/>
    <path id="Trazado_2439" data-name="Trazado 2439" d="M41.549,30.139a1.5,1.5,0,0,0,1.076-1.814l-.9-4.974,2.831-3.943c.635-.884.244-2.226-.653-2.354l4.066.579c.9.128,1.287,1.47.653,2.353L45.795,23.93l.895,4.974a1.5,1.5,0,0,1-1.075,1.814.916.916,0,0,1-.237,0l-4.065-.579a.9.9,0,0,0,.237,0" transform="translate(-28.938 -11.746)" fill="#060094"/>
    <path id="Trazado_2440" data-name="Trazado 2440" d="M2.992,17.876,3.5,12.732.392,9.51A1.607,1.607,0,0,1,.938,6.992L5.013,5.756,6.671.93A1.278,1.278,0,0,1,7.677.007,1.038,1.038,0,0,1,8.745.678l2.013,4.381,4.13.24c.955.054,1.39,1.451.736,2.362L12.792,11.6l.9,4.974a1.5,1.5,0,0,1-1.075,1.814.928.928,0,0,1-.544-.1L8.306,16.345,4.728,19.181a1.064,1.064,0,0,1-.532.233c-.674.082-1.3-.6-1.2-1.538" transform="translate(0 0)" fill="#4d46ff"/>
    <path id="Trazado_2441" data-name="Trazado 2441" d="M11.4,31.826a1.065,1.065,0,0,0,.532-.233l3.578-2.836L19.274,30.7a.928.928,0,0,0,.544.1,1.5,1.5,0,0,0,1.075-1.814L20,24.016l2.831-3.943a1.718,1.718,0,0,0,.141-1.731,1.694,1.694,0,0,1,0,1.953l-2.832,3.943.9,4.974a1.5,1.5,0,0,1-1.076,1.814.929.929,0,0,1-.544-.1l-3.762-1.945-3.578,2.836a1,1,0,0,1-1.587-.414,1.006,1.006,0,0,0,.918.424" transform="translate(-7.344 -12.633)" fill="#060094"/>
    <path id="Trazado_2442" data-name="Trazado 2442" d="M7.817.23a1.278,1.278,0,0,0-1.006.923L5.153,5.979,1.078,7.215A1.606,1.606,0,0,0,.3,9.393a1.611,1.611,0,0,1,.643-2.4L5.016,5.757,6.673.931A1.278,1.278,0,0,1,7.679.008,1.029,1.029,0,0,1,8.728.645.983.983,0,0,0,7.817.23" transform="translate(-0.003 0)" fill="#3636e8"/>
  </g>
</svg>
