<svg id="Grupo_1963" data-name="Grupo 1963" xmlns="http://www.w3.org/2000/svg" xmlns:xlink="http://www.w3.org/1999/xlink" width="20" height="20" viewBox="0 0 20 20">
  <defs>
    <clipPath id="clip-path">
      <rect id="Rectángulo_300" data-name="Rectángulo 300" width="20" height="20" fill="none"/>
    </clipPath>
  </defs>
  <g id="Grupo_1596" data-name="Grupo 1596" transform="translate(0 0)" clip-path="url(#clip-path)">
    <path id="Trazado_2443" data-name="Trazado 2443" d="M30.5,50.878a1.091,1.091,0,0,0,.337-.471l1.638-4.223,3.735-1.639-1.638,4.224a1.094,1.094,0,0,1-.337.471.934.934,0,0,1-.2.122L30.293,51a.934.934,0,0,0,.2-.122" transform="translate(-21.299 -31.081)" fill="#060094"/>
    <path id="Trazado_2444" data-name="Trazado 2444" d="M10.439,1.848a1.05,1.05,0,0,0-1.025-.129L13.149.08A1.05,1.05,0,0,1,14.174.21L18.042,2.8,14.307,4.441Z" transform="translate(-6.619 0)" fill="#060094"/>
    <path id="Trazado_2445" data-name="Trazado 2445" d="M42.795,16.245a1.477,1.477,0,0,0,.018-2.07L39.6,10.507l.458-4.755c.1-1.066-.89-1.978-1.715-1.616L42.079,2.5c.824-.361,1.817.55,1.715,1.616l-.458,4.755,3.212,3.668a1.477,1.477,0,0,1-.018,2.069.926.926,0,0,1-.2.122l-3.735,1.639a.926.926,0,0,0,.2-.122" transform="translate(-26.959 -1.686)" fill="#060094"/>
    <path id="Trazado_2446" data-name="Trazado 2446" d="M7.419,22.93l-2.107-4.54L1.087,17.33a1.543,1.543,0,0,1-.778-2.378L3.158,11.8,2.185,6.922a1.287,1.287,0,0,1,.4-1.292,1.018,1.018,0,0,1,1.237,0L7.688,8.224l3.623-1.955c.837-.452,1.894.482,1.789,1.58L12.642,12.6l3.212,3.668a1.477,1.477,0,0,1-.018,2.07.943.943,0,0,1-.512.2l-4.151.345L9.535,23.11a1.094,1.094,0,0,1-.337.471,1.2,1.2,0,0,1-1.78-.651" transform="translate(0 -3.783)" fill="#4d46ff"/>
    <path id="Trazado_2447" data-name="Trazado 2447" d="M27.878,25.317a1.093,1.093,0,0,0,.337-.471l1.638-4.223L34,20.278a.943.943,0,0,0,.512-.2,1.477,1.477,0,0,0,.018-2.069l-3.212-3.668.458-4.755a1.626,1.626,0,0,0-.734-1.512A1.6,1.6,0,0,1,32.006,9.7l-.458,4.755,3.212,3.668a1.477,1.477,0,0,1-.018,2.07.94.94,0,0,1-.512.2l-4.151.345L28.44,24.959a1.1,1.1,0,0,1-.337.471,1.039,1.039,0,0,1-1.214.013,1,1,0,0,0,.988-.126" transform="translate(-18.906 -5.633)" fill="#060094"/>
    <path id="Trazado_2448" data-name="Trazado 2448" d="M2.809,5.746a1.287,1.287,0,0,0-.4,1.292l.974,4.877L.535,15.068a1.553,1.553,0,0,0,.412,2.218,1.55,1.55,0,0,1-.638-2.331L3.158,11.8,2.184,6.925a1.287,1.287,0,0,1,.4-1.292,1.012,1.012,0,0,1,1.2-.017.975.975,0,0,0-.978.131" transform="translate(0 -3.786)" fill="#3636e8"/>
  </g>
</svg>
