<svg xmlns="http://www.w3.org/2000/svg" width="70" height="70.001" viewBox="0 0 70 70.001">
  <g id="Grupo_1754" data-name="Grupo 1754" transform="translate(0 0)">
    <g id="Grupo_1748" data-name="Grupo 1748" transform="translate(0 0)">
      <g id="Icon" transform="translate(0 0)">
        <g id="Grupo_473" data-name="Grupo 473" transform="translate(0)">
          <path id="Trazado_1492" data-name="Trazado 1492" d="M654.2,284.069c-1.412,0-2.782,0-4.152,0-1.19,0-1.662-.605-1.327-1.731Q650.35,276.88,652,271.43c.2-.672.568-.91,1.369-.91q9.256,0,18.512,0l24.72,0h.541c0-.4,0-.762,0-1.129,0-.734-.009-1.468.009-2.2a1.1,1.1,0,0,1,1.167-1.176q3.33-.02,6.66,0a1.111,1.111,0,0,1,1.2,1.2c.014,1.07,0,2.141,0,3.279.209.01.388.025.567.025.9,0,1.806-.009,2.709,0a1.138,1.138,0,0,1,1.236,1q1.115,5.527,2.219,11.056a1.155,1.155,0,0,1-1.214,1.492c-1.052.012-2.105,0-3.258,0v.792q0,20.318,0,40.636a2.322,2.322,0,0,1-1.712,2.524,3.675,3.675,0,0,1-.894.076q-12.021.006-24.042-.006a1.471,1.471,0,0,0-1.251.544,21.44,21.44,0,0,1-36.922-8.788,21.408,21.408,0,0,1,10.159-23.911c.273-.155.479-.287.478-.669-.016-3.631-.01-7.262-.011-10.893C654.238,284.3,654.222,284.226,654.2,284.069Zm24.676,14.677a21.388,21.388,0,0,1,3.769,27.053h23.474V284.111H656.53v10.439c.986-.3,1.927-.612,2.887-.85.38-.094.474-.246.47-.6-.015-1.411-.006-2.822,0-4.232,0-1.011.393-1.408,1.4-1.409q4.233,0,8.465,0c1.039,0,1.427.39,1.429,1.432q0,2.427,0,4.854c0,.277.027.465.345.6,1.254.551,2.486,1.151,3.727,1.732.126.059.257.109.442.187v-.691q0-3.358,0-6.716c0-1.009.392-1.4,1.4-1.4q4.233,0,8.465,0c1.037,0,1.422.391,1.423,1.44q0,4.176,0,8.352c0,1.125-.369,1.5-1.479,1.5C683.361,298.747,681.218,298.745,678.88,298.745ZM699.4,268.287c0,1.115-.007,2.166,0,3.217a1.1,1.1,0,0,1-.609,1.117,2.507,2.507,0,0,1-.985.151q-21.616.012-43.232,0a.691.691,0,0,0-.81.6c-.591,2.078-1.232,4.142-1.854,6.211-.215.716-.428,1.432-.655,2.193h59.092a1.039,1.039,0,0,0,.018-.245c-.554-2.8-1.116-5.6-1.663-8.408-.065-.336-.263-.351-.527-.349-1,.008-1.994.013-2.991,0a1.144,1.144,0,0,1-1.27-1.253c-.01-.564,0-1.129,0-1.693,0-.517,0-1.034,0-1.546Zm-17.994,54.934a18.942,18.942,0,0,0-4.133-22.891,19.143,19.143,0,0,0-26.013.245c-6.808,6.429-7.124,15.76-4.551,21.094.662-1.019,1.287-2.018,1.952-2.988a2.073,2.073,0,0,0,.363-1.261c-.016-2.069,0-4.139-.007-6.208a1.218,1.218,0,0,1,.562-1.207,1.126,1.126,0,0,1,1.368.146,5.619,5.619,0,0,0,4.693,1.338.837.837,0,0,1,.225,0,5.111,5.111,0,0,0,4.315-1.277,1.227,1.227,0,0,1,1.415-.238,1.246,1.246,0,0,1,.615,1.292c0,1.449-.043,2.9.015,4.345a9.144,9.144,0,0,1-1.294,5.665.9.9,0,0,0,.013,1.093,8.259,8.259,0,0,1,1.289,5.3c-.113,1.8-.033,3.611-.01,5.416,0,.181.173.488.31.515a13.838,13.838,0,0,0,1.588.148v-.728c0-2.615.026-5.231-.013-7.845a6.546,6.546,0,0,1,.559-2.782c.648-1.491,1.38-2.968,1.155-4.692a.917.917,0,0,0-.515-.833c-.619-.316-1.216-.675-1.82-1.02a1.175,1.175,0,0,1-.613-1.331c.235-1.39.476-2.779.693-4.172a2.073,2.073,0,0,1,1.5-1.8c.857-.28,1.708-.586,2.576-.826a6.65,6.65,0,0,1,1.649-.269c2.163-.03,4.327-.015,6.49-.009a2.682,2.682,0,0,1,.782.071c1.094.342,2.18.708,3.266,1.074a1.853,1.853,0,0,1,1.327,1.418c.29,1.532.513,3.077.751,4.619a1.142,1.142,0,0,1-.663,1.252c-.593.327-1.166.69-1.77.993a.775.775,0,0,0-.495.84c.032.468-.006.941.014,1.41a1.238,1.238,0,0,0,.142.588C679.869,320.872,680.623,322.017,681.407,323.221Zm-15.024,10.366a3.826,3.826,0,0,0,.475,0,19.179,19.179,0,0,0,13.055-7.779.517.517,0,0,0,.009-.7c-.951-1.445-1.9-2.891-2.808-4.363a2.685,2.685,0,0,1-.374-1.2c-.055-.918,0-1.843-.022-2.764a1.419,1.419,0,0,1,.827-1.413c.534-.276,1.045-.6,1.583-.865a.617.617,0,0,0,.366-.773c-.16-.868-.276-1.746-.446-2.612a.736.736,0,0,0-.351-.5,10.731,10.731,0,0,0-4.366-.93c-1.423.1-2.858.048-4.287.018a10.671,10.671,0,0,0-2.378.341c-1.438.294-2.284.97-2.16,2.537a.462.462,0,0,1-.018.111c-.273,1.517-.314,1.606,1.051,2.255a2.4,2.4,0,0,1,1.549,2.713c-.118,1.166.127,2.364-.448,3.482-.317.616-.525,1.287-.805,1.923a5.235,5.235,0,0,0-.458,2.235c.034,2.52.009,5.041.007,7.562ZM651.39,313.1l-.107.109c0,1.654.019,3.307-.015,4.96a2.272,2.272,0,0,1-.317,1.1c-.884,1.42-1.787,2.831-2.742,4.2a1.039,1.039,0,0,0,.007,1.353,19.543,19.543,0,0,0,7.126,6.6,18.113,18.113,0,0,0,4.565,1.731c.012-.25.029-.452.03-.654.005-1.938-.021-3.876.024-5.813a4.268,4.268,0,0,0-.574-2.417c-.35-.577-.611-1.207-.924-1.806a1.363,1.363,0,0,1,0-1.347q.574-1.1,1.123-2.212a1.785,1.785,0,0,0,.264-.675c.04-1.653.048-3.307.062-4.961,0-.024-.049-.049-.123-.119a2.953,2.953,0,0,1-2.36.6c-1.129-.017-2.258,0-3.386,0C653.112,313.761,652.145,313.933,651.39,313.1Zm33.285-16.636v-6.716H678v6.716Zm-22.456-6.723v3.282l6.659.373v-3.655Z" transform="translate(-642.94 -265.999)" fill="#353631"/>
          <path id="Trazado_1493" data-name="Trazado 1493" d="M1078.62,467.3c-1.429,0-2.858,0-4.287,0-.9,0-1.326-.418-1.328-1.3q-.01-4.343,0-8.687a1.153,1.153,0,0,1,1.326-1.3q4.315,0,8.63,0c.925,0,1.338.42,1.339,1.351q0,4.287,0,8.574c0,.959-.413,1.361-1.386,1.364-1.429,0-2.858,0-4.287,0Zm3.386-9h-6.7V465h6.7Z" transform="translate(-1024.446 -434.55)" fill="#353631"/>
          <path id="Trazado_1494" data-name="Trazado 1494" d="M1084.312,621.69c0,1.41,0,2.819,0,4.229,0,.972-.41,1.392-1.361,1.393q-4.314.007-8.627,0a1.155,1.155,0,0,1-1.3-1.328q-.007-4.313,0-8.627c0-.922.419-1.332,1.355-1.332q4.286-.006,8.571,0c.96,0,1.36.411,1.363,1.384,0,1.428,0,2.857,0,4.286Zm-9.017,3.317h6.719v-6.682h-6.719Z" transform="translate(-1024.461 -576.502)" fill="#353631"/>
          <path id="Trazado_1495" data-name="Trazado 1495" d="M778.039,549.187a3.314,3.314,0,0,1,4.9-2.943,1.344,1.344,0,0,0,1.471.026,3.42,3.42,0,0,1,3.808.384,3.475,3.475,0,0,1,.889,3.876,8.507,8.507,0,0,1-2.611,3.617c-.674.6-1.412,1.122-2.133,1.662a1.038,1.038,0,0,1-1.269.053,13.65,13.65,0,0,1-4.265-4.121A4.862,4.862,0,0,1,778.039,549.187Zm2.2-.013a7.313,7.313,0,0,0,.352,1.053,9.3,9.3,0,0,0,2.881,3.109.547.547,0,0,0,.521-.058,31.073,31.073,0,0,0,2.437-2.477,3.528,3.528,0,0,0,.619-1.591.917.917,0,0,0-.962-1.064,1.456,1.456,0,0,0-1.328.7,1.2,1.2,0,0,1-2.151-.006,1.956,1.956,0,0,0-.515-.506A1.17,1.17,0,0,0,780.235,549.174Z" transform="translate(-762.786 -514.262)" fill="#353631"/>
          <path id="Trazado_1496" data-name="Trazado 1496" d="M896.4,710.973c.758.006,1.137.316,1.126.869s-.391.862-1.1.816a1.434,1.434,0,0,1-.894-.315,1.033,1.033,0,0,1-.135-.859C895.547,710.986,896.013,710.944,896.4,710.973Z" transform="translate(-866.865 -660.73)" fill="#353631"/>
          <path id="Trazado_1497" data-name="Trazado 1497" d="M877.353,684.434a.857.857,0,0,1-.882.825.829.829,0,0,1-.8-.846.84.84,0,0,1,.817-.829A.87.87,0,0,1,877.353,684.434Z" transform="translate(-849.4 -636.439)" fill="#353631"/>
          <path id="Trazado_1498" data-name="Trazado 1498" d="M922.255,684.4a.837.837,0,0,1-.781.859.852.852,0,0,1-.893-.809.862.862,0,0,1,.843-.865A.848.848,0,0,1,922.255,684.4Z" transform="translate(-889.236 -636.441)" fill="#353631"/>
          <path id="Trazado_1499" data-name="Trazado 1499" d="M732.264,706.95a.84.84,0,0,1-.831.816.842.842,0,0,1,0-1.683A.836.836,0,0,1,732.264,706.95Z" transform="translate(-720.696 -656.399)" fill="#353631"/>
          <path id="Trazado_1500" data-name="Trazado 1500" d="M765.668,706.941a.849.849,0,0,1-.885.822.842.842,0,1,1,.885-.822Z" transform="translate(-750.331 -656.396)" fill="#353631"/>
        </g>
      </g>
    </g>
  </g>
</svg>
