<svg xmlns="http://www.w3.org/2000/svg" width="50" height="50" viewBox="0 0 50 50">
  <g id="Grupo_2561" data-name="Grupo 2561" transform="translate(-672.449 -3445.004)">
    <path id="Trazado_5488" data-name="Trazado 5488" d="M39.53,4.081c-8.9.939-15.606,8.011-15.53,16.383v10.49c0,2.45,1.072,3.452,2.392,3.452h.268A1.131,1.131,0,0,1,27.828,35.5v4.829a5,5,0,0,0,5.148,4.811h7.291A1.011,1.011,0,0,1,41.3,46.1v6.743a1.13,1.13,0,0,0,.407.856,1.3,1.3,0,0,0,.951.3c8.964-.777,15.812-7.818,15.789-16.231V20.1A15.642,15.642,0,0,0,52.79,8.172,18.007,18.007,0,0,0,39.53,4.081ZM32.516,25.543H30.7a1.833,1.833,0,1,1,0-3.657h1.818a1.815,1.815,0,1,1,0,3.622Z" transform="translate(664.001 3441.001)" fill="#1209e0"/>
    <path id="Trazado_5489" data-name="Trazado 5489" d="M4.441,44.1,13.569,57.35a1.267,1.267,0,0,0,1.043.537H19.56a.669.669,0,0,0,.577-.321.583.583,0,0,0-.022-.627L9.273,41.2a2.924,2.924,0,0,0-3.828-.787l-.124.08A2.521,2.521,0,0,0,4.441,44.1Zm8.822,6.877a.867.867,0,0,1,.287.626.92.92,0,0,1-.077.349.779.779,0,0,1-.211.286.99.99,0,0,1-.67.268.96.96,0,0,1-.89-.554.907.907,0,0,1-.048-.322A.866.866,0,0,1,11.933,51,1.006,1.006,0,0,1,13.263,50.974Zm-1.675-2.45a.853.853,0,0,1,0,1.263,1,1,0,0,1-1.351,0,.853.853,0,0,1,0-1.263,1.057,1.057,0,0,1,1.359,0ZM6.316,42.488a1,1,0,0,1,1.321.268l2.344,3.416A.863.863,0,0,1,9.7,47.415a1,1,0,0,1-1.33-.259L6.029,43.722a.86.86,0,0,1,.287-1.234Z" transform="translate(668.435 3437.117)" fill="#1209e0"/>
    <path id="Trazado_5535" data-name="Trazado 5535" d="M5.723,22.63l4.061,2.917a2.322,2.322,0,0,0,2.743,0l4.061-2.917a4.264,4.264,0,0,0,1.723-3.469V11.284a.766.766,0,0,0-.644-.784A13.233,13.233,0,0,1,14.089,9.46,14.877,14.877,0,0,1,11.752,8.2a1.086,1.086,0,0,0-1.193,0A14.909,14.909,0,0,1,8.24,9.486a13.233,13.233,0,0,1-3.578,1.041A.762.762,0,0,0,4,11.284v8.127A4.237,4.237,0,0,0,5.723,22.63Zm6.977-8.3a1.134,1.134,0,0,1,1.688,0,1.357,1.357,0,0,1,0,1.818L11.555,19.2A1.13,1.13,0,0,1,10,19.321L8.77,18.287a1.352,1.352,0,0,1-.239-1.8,1.137,1.137,0,0,1,1.67-.257l.417.334.793-.848Z" transform="translate(668.449 3436.981)" fill="#1209e0"/>
  </g>
</svg>
