<svg xmlns="http://www.w3.org/2000/svg" width="20" height="20" viewBox="0 0 20 20">
  <path id="i" d="M20,2H4A2,2,0,0,0,2.01,4L2,20a2.006,2.006,0,0,0,2,2H20a2.006,2.006,0,0,0,2-2V4A2.006,2.006,0,0,0,20,2ZM12,8a4,4,0,0,1,4,4,4.869,4.869,0,0,1-.1.906A3.915,3.915,0,0,1,12,16a4,4,0,0,1,0-8ZM4.5,20a.5.5,0,0,1-.5-.5V11H6.09A6.638,6.638,0,0,0,6,12a6,6,0,0,0,12,0,6.638,6.638,0,0,0-.09-1H20v8.5a.5.5,0,0,1-.5.5ZM20,6.5a.5.5,0,0,1-.5.5h-2a.5.5,0,0,1-.5-.5v-2a.5.5,0,0,1,.5-.5h2a.5.5,0,0,1,.5.5Z" transform="translate(-2 -2)" fill="#fff"/>
</svg>
