<svg xmlns="http://www.w3.org/2000/svg" width="20" height="20" viewBox="0 0 20 20">
  <path id="streamlinehq-linkedin-professional-networks" d="M4.636,1A3.636,3.636,0,0,0,1,4.636V17.364A3.636,3.636,0,0,0,4.636,21H17.364A3.636,3.636,0,0,0,21,17.364V4.636A3.636,3.636,0,0,0,17.364,1Zm1.1,6.281a1.55,1.55,0,1,0-1.55-1.55A1.55,1.55,0,0,0,5.731,7.281Zm1.55,10.537v-9.3h-3.1v9.3Zm4.029-9.3H8.521v9.3H11.31V12.209A2.262,2.262,0,0,1,13.169,11c1.24,0,1.55,1.24,1.55,1.86v4.959h3.1V12.86c0-1.661-.725-4.339-3.409-4.339a3.711,3.711,0,0,0-3.1,1.206Z" transform="translate(-1 -1)" fill="#fff" fill-rule="evenodd"/>
</svg>
