<svg xmlns="http://www.w3.org/2000/svg" width="181" height="50" viewBox="0 0 181 50">
  <g id="Grupo_2569" data-name="Grupo 2569" transform="translate(-139 -4626)">
    <g id="Grupo_2515" data-name="Grupo 2515" transform="translate(0 -133.349)">
      <rect id="Rectángulo_404" data-name="Rectángulo 404" width="181" height="50" transform="translate(139 4759.349)" fill="#fbd207"/>
      <g id="Artwork_3" data-name="Artwork 3" transform="translate(229.437 4782.467)">
        <g id="Grupo_1980" data-name="Grupo 1980" transform="translate(-66.917 -17.437)">
          <circle id="Elipse_636" data-name="Elipse 636" cx="17.437" cy="17.437" r="17.437" transform="translate(98.961)" fill="#fff"/>
          <g id="Grupo_1977" data-name="Grupo 1977" transform="translate(0 0.006)">
            <path id="Trazado_5295" data-name="Trazado 5295" d="M112.021,20.547a11.35,11.35,0,0,1,2.818,8.125q0,.425-.01.75a.581.581,0,0,1-.577.563l-13.026.147a.585.585,0,0,0-.515.85,5.558,5.558,0,0,0,1,1.385,3.142,3.142,0,0,0,2.062.959,5.178,5.178,0,0,0,4.091-1.163,1.863,1.863,0,0,1,1.781-.43l3.465.993a1.148,1.148,0,0,1,.733,1.677,8.218,8.218,0,0,1-1.537,2.128,10.673,10.673,0,0,1-3.614,2.388,11.413,11.413,0,0,1-4.348.857,6.216,6.216,0,0,1-.816-.041A10.413,10.413,0,0,1,98.323,37.9a11.8,11.8,0,0,1-3.8-4.287,12.172,12.172,0,0,1-1.409-5.8,8.038,8.038,0,0,1,.041-.939,9.178,9.178,0,0,1,1.654-4.818,10.1,10.1,0,0,1,3.92-3.307,12.09,12.09,0,0,1,5.369-1.184Q109.2,17.567,112.021,20.547Zm-10.693,4.62,5.2.031a.581.581,0,0,0,.554-.779,2.545,2.545,0,0,0-.76-1.054,3.209,3.209,0,0,0-1.817-.735,3.668,3.668,0,0,0-3.676,1.648A.583.583,0,0,0,101.328,25.167Z" transform="translate(-66.422 -12.537)" fill="#1d1a1a"/>
            <path id="Trazado_5296" data-name="Trazado 5296" d="M185.979,23.27a.571.571,0,0,1-.07.522,8.4,8.4,0,0,1-3.118,2.717,10.561,10.561,0,0,1-4.716.96q-3.716,0-5.553-1.9t-1.837-6.1a30.578,30.578,0,0,1,.2-3.1l.494-4.058a.569.569,0,0,0-.565-.638H168.78a.569.569,0,0,1-.568-.544L167.976,5.8a.569.569,0,0,1,.558-.594l3.249-.061a.569.569,0,0,0,.554-.5l.456-3.809a.569.569,0,0,1,.536-.5l6.119-.31a.569.569,0,0,1,.594.632l-.424,3.753a.569.569,0,0,0,.575.633L183.6,4.98a.569.569,0,0,1,.575.5l.642,5.508a.569.569,0,0,1-.565.635h-4.976a.569.569,0,0,0-.565.506l-.352,3.168q-.083.735-.082,1.062a4.669,4.669,0,0,0,.613,2.572,1.869,1.869,0,0,0,1.633.939,3.516,3.516,0,0,0,1.8-.449,5.283,5.283,0,0,0,1.1-.9.567.567,0,0,1,.937.211Z" transform="translate(-119.819 -0.022)" fill="#1d1a1a"/>
            <path id="Trazado_5297" data-name="Trazado 5297" d="M.081,19.667a.82.82,0,0,1,.793-.793l.43-.014,9.24-.572a.824.824,0,0,1,.823.541q.356.97.634,2,.362,1.342.619,2.7t.428,2.674q.172,1.313.286,2.494.183,2.221.219,4.4a.821.821,0,0,0,1.268.668,3.236,3.236,0,0,0,.3-.218,3.657,3.657,0,0,0,.59-.619,4.345,4.345,0,0,0,.524-.923,6.719,6.719,0,0,0,.39-1.295,10.8,10.8,0,0,0,.19-1.713,16.152,16.152,0,0,0-.038-1.894q-.077-1.017-.209-2.046t-.314-2.009q-.181-.98-.371-1.779t-.381-1.361l0-.011a.821.821,0,0,1,.549-1.059q.367-.1.788-.2.838-.19,2.094-.352a23.814,23.814,0,0,1,2.989-.162,4.214,4.214,0,0,1,1.941.419,3.706,3.706,0,0,1,1.351,1.171,5.241,5.241,0,0,1,.79,1.8,9.654,9.654,0,0,1,.257,2.3,21.853,21.853,0,0,1-.542,5.045,17.667,17.667,0,0,1-1.485,4.092A13.442,13.442,0,0,1,22,36.116a13.22,13.22,0,0,1-2.818,2.237,12.586,12.586,0,0,1-3.2,1.332,13.273,13.273,0,0,1-3.369.438,6.586,6.586,0,0,1-1.523-.19q-.8-.191-1.618-.409t-1.6-.362a4.689,4.689,0,0,0-.8-.079.824.824,0,0,1-.806-.636q-.541-2.388-1.139-4.833-.305-1.2-.648-2.522T3.751,28.4q-.39-1.371-.808-2.741-.325-1.06-.66-2.052a.817.817,0,0,0-.805-.553l-.629.023A.82.82,0,0,1,0,22.229Z" transform="translate(0 -12.944)" fill="#1d1a1a"/>
            <path id="Trazado_5298" data-name="Trazado 5298" d="M253.431,8.309c-.57.118-2.538.56-3.059.711a.257.257,0,0,0-.182.287q.072.461.218,1.21c.123.631.79,4.052,1.031,4.84s.544,1.623.913,2.505a14.158,14.158,0,0,0,1.391,2.548,6.688,6.688,0,0,0,1.509,1.5,13.942,13.942,0,0,0,2.253,1.372.262.262,0,0,1,.141.3,7.489,7.489,0,0,1-.483,1.26,5.519,5.519,0,0,1-.972,1.4,4.913,4.913,0,0,1-1.458,1.048,4.566,4.566,0,0,1-1.994.411,10.8,10.8,0,0,1-1.827-.168,9.73,9.73,0,0,1-1.928-.545,9.212,9.212,0,0,1-1.835-.98,6.727,6.727,0,0,1-1.542-1.467,7.151,7.151,0,0,1-1.064-2.011,7.852,7.852,0,0,1-.4-2.606q0-.905.025-1.7h0a.262.262,0,0,0-.5-.107q-.158.416-.283.844a20.9,20.9,0,0,0-.545,2.38q-.2,1.2-.3,2.38t-.184,2.271a1.907,1.907,0,0,1-.176.57,1.683,1.683,0,0,1-.436.553,2.312,2.312,0,0,1-.754.41,3.377,3.377,0,0,1-1.1.159,9.566,9.566,0,0,1-1.316-.075,8.7,8.7,0,0,1-.947-.184c-.28-.073-.542-.151-.788-.235a7.618,7.618,0,0,0-.83-.226,10.313,10.313,0,0,0-1.081-.167,11.708,11.708,0,0,0-1.277-.054.262.262,0,0,1-.265-.261l.033-25.271a.26.26,0,0,1,.244-.26L240.8.484A1.627,1.627,0,0,1,242.525,2.2q-.136,2.418-.246,4.651-.068,1.307-.126,2.665t-.109,2.6q-.05,1.241-.075,2.3c0,.128-.006.252-.008.372a.257.257,0,0,0,.489.116c.256-.534.63-3.006.956-4.031a5.633,5.633,0,0,1,1.874-2.78A12.217,12.217,0,0,1,248.406,6.3a21.205,21.205,0,0,1,4.424-.973.861.861,0,0,1,.879.625l.368,1.3A.847.847,0,0,1,253.431,8.309Z" transform="translate(-166.473 -0.349)" fill="#1d1a1a"/>
            <path id="Trazado_5299" data-name="Trazado 5299" d="M335.3,23.318a3.848,3.848,0,0,1,1.872.736,5.09,5.09,0,0,1,1.351,1.527,8.044,8.044,0,0,1,.838,2.1,11.247,11.247,0,0,1,.335,2.44,10.938,10.938,0,0,1-.223,2.552,7.793,7.793,0,0,1-2.57,4.358,9.953,9.953,0,0,1-2.57,1.584,15.784,15.784,0,0,1-3.586,1.034,27.392,27.392,0,0,1-4.722.363,17.1,17.1,0,0,1-5.643-.783A7.965,7.965,0,0,1,316.937,37a7.837,7.837,0,0,1-1.7-3.464,19.029,19.029,0,0,1-.419-4.48,11.656,11.656,0,0,1,.932-4.768A8.731,8.731,0,0,1,318.3,20.98a10.862,10.862,0,0,1,3.939-1.919,19.441,19.441,0,0,1,5.094-.624q6.835,0,9.723,3.613Zm-5.737,6.37q-.019-.6-.028-1.155t.028-1.1l-.149.112q-.13-.392-.27-.745a2.6,2.6,0,0,0-.354-.634,1.561,1.561,0,0,0-.55-.447,1.915,1.915,0,0,0-.856-.167,1.832,1.832,0,0,0-.913.242,2.041,2.041,0,0,0-.745.8,5.242,5.242,0,0,0-.512,1.443,10.208,10.208,0,0,0-.2,2.17,6.714,6.714,0,0,0,.54,3.017,1.681,1.681,0,0,0,1.546,1.042,1.742,1.742,0,0,0,1.164-.4,2.95,2.95,0,0,0,.773-1.052,5.446,5.446,0,0,0,.419-1.471A9.786,9.786,0,0,0,329.565,29.688Z" transform="translate(-224.559 -13.159)" fill="#1d1a1a"/>
          </g>
          <g id="Grupo_1978" data-name="Grupo 1978" transform="translate(5.755 28.292)">
            <path id="Trazado_5300" data-name="Trazado 5300" d="M21.223,105.045a2.614,2.614,0,0,1-.852-1.206,5.269,5.269,0,0,1-.3-1.86,9,9,0,0,1,.3-2.374l1.636.4a7.785,7.785,0,0,0-.122.78q-.046.422-.1,1.069l-.023.22q0,1.872.768,1.872t.754-1.834a6.882,6.882,0,0,0-.1-.951,12.061,12.061,0,0,0-.251-1.218l1.613-.456a7.774,7.774,0,0,1,.4,2.625,4.853,4.853,0,0,1-.3,1.777,2.616,2.616,0,0,1-.841,1.169,2.066,2.066,0,0,1-1.282.411A2.126,2.126,0,0,1,21.223,105.045Z" transform="translate(-20.074 -99.255)" fill="#1d1b1c"/>
            <path id="Trazado_5301" data-name="Trazado 5301" d="M42.183,106.07a1.514,1.514,0,0,1,.312,1.061l-.046,2.686H41.057l.008-1.788a1.559,1.559,0,0,0-.148-.792.485.485,0,0,0-.437-.235.633.633,0,0,0-.407.137.667.667,0,0,0-.209.464l.008,2.215H38.493v-4.056l1.362-.023v.388a2.714,2.714,0,0,1,.677-.312,2.543,2.543,0,0,1,.761-.122A1.117,1.117,0,0,1,42.183,106.07Z" transform="translate(-33.213 -103.684)" fill="#1d1b1c"/>
            <path id="Trazado_5302" data-name="Trazado 5302" d="M56.115,109.911l-.008-.358a1.584,1.584,0,0,1-.509.282,1.875,1.875,0,0,1-.624.106,1.666,1.666,0,0,1-.928-.278,1.991,1.991,0,0,1-.677-.749,2.166,2.166,0,0,1-.251-1.035,2.131,2.131,0,0,1,.259-1.042,1.926,1.926,0,0,1,1.712-1.012,1.577,1.577,0,0,1,.559.1,1.071,1.071,0,0,1,.422.274v-.327h1.263l.175,4.041Zm-.5-1.347a.871.871,0,0,0,.289-.324.906.906,0,0,0,.107-.43.723.723,0,0,0-.2-.521.674.674,0,0,0-.506-.209.831.831,0,0,0-.586.235.748.748,0,0,0-.251.563.762.762,0,0,0,.11.388.874.874,0,0,0,.289.3.655.655,0,0,0,.75-.007Z" transform="translate(-43.644 -103.778)" fill="#1d1b1c"/>
            <path id="Trazado_5303" data-name="Trazado 5303" d="M80.763,105.912l-1.1,4.056H77.818l-.867-4.063h1.461l.411,2.321.472-2.314Z" transform="translate(-60.645 -103.835)" fill="#1d1b1c"/>
            <path id="Trazado_5304" data-name="Trazado 5304" d="M93.213,106.381a2.114,2.114,0,0,1,.525,1.514c0,.106,0,.188-.007.244l-2.693.03a1.114,1.114,0,0,0,.255.415.584.584,0,0,0,.384.179.9.9,0,0,0,.883-.358l1.088.312a1.463,1.463,0,0,1-.38.643,1.981,1.981,0,0,1-.673.445,2.119,2.119,0,0,1-.81.16,1.194,1.194,0,0,1-.152-.007,1.94,1.94,0,0,1-.97-.343,2.2,2.2,0,0,1-.708-.8,2.27,2.27,0,0,1-.263-1.081,1.554,1.554,0,0,1,.008-.175,1.717,1.717,0,0,1,.308-.9,1.886,1.886,0,0,1,.73-.616,2.253,2.253,0,0,1,1-.221A1.932,1.932,0,0,1,93.213,106.381Zm-2.169.859,1.286.008a.515.515,0,0,0-.179-.343.6.6,0,0,0-.339-.137A.693.693,0,0,0,91.045,107.24Z" transform="translate(-69.732 -103.778)" fill="#1d1b1c"/>
            <path id="Trazado_5305" data-name="Trazado 5305" d="M107.721,105.932a1.43,1.43,0,0,1,.457.377l-.525,1.179a.7.7,0,0,0-.6-.3.693.693,0,0,0-.612.293,1.887,1.887,0,0,0-.232.955v1.461h-1.415v-4.056h1.415v.35a1.556,1.556,0,0,1,.468-.285,1.421,1.421,0,0,1,.521-.1A1.138,1.138,0,0,1,107.721,105.932Z" transform="translate(-80.505 -103.76)" fill="#1d1b1c"/>
            <path id="Trazado_5306" data-name="Trazado 5306" d="M120.633,98.808v6.026h-1.484v-.426a1.855,1.855,0,0,1-.593.335,2.123,2.123,0,0,1-.723.129,1.383,1.383,0,0,1-.837-.286,1.972,1.972,0,0,1-.616-.772,2.442,2.442,0,0,1-.228-1.05,2.229,2.229,0,0,1,.236-1,2.206,2.206,0,0,1,.62-.78,1.327,1.327,0,0,1,.8-.308,2.031,2.031,0,0,1,1.316.365l-.015-2.359Zm-1.925,4.653a.936.936,0,0,0,.308-.312.748.748,0,0,0-.13-.959.8.8,0,0,0-.574-.239.757.757,0,0,0-.552.239.78.78,0,0,0-.13.963.883.883,0,0,0,.3.308.708.708,0,0,0,.384.118A.742.742,0,0,0,118.708,103.461Z" transform="translate(-88.607 -98.686)" fill="#1d1b1c"/>
            <path id="Trazado_5307" data-name="Trazado 5307" d="M135.737,109.911l-.008-.358a1.584,1.584,0,0,1-.509.282,1.875,1.875,0,0,1-.624.106,1.666,1.666,0,0,1-.928-.278,1.988,1.988,0,0,1-.677-.749,2.166,2.166,0,0,1-.251-1.035,2.13,2.13,0,0,1,.259-1.042,1.926,1.926,0,0,1,1.712-1.012,1.579,1.579,0,0,1,.559.1,1.074,1.074,0,0,1,.422.274v-.327h1.263l.175,4.041Zm-.5-1.347a.872.872,0,0,0,.289-.324.906.906,0,0,0,.107-.43.723.723,0,0,0-.2-.521.674.674,0,0,0-.506-.209.83.83,0,0,0-.586.235.748.748,0,0,0-.251.563.76.76,0,0,0,.11.388.869.869,0,0,0,.289.3.655.655,0,0,0,.75-.007Z" transform="translate(-100.44 -103.778)" fill="#1d1b1c"/>
            <path id="Trazado_5308" data-name="Trazado 5308" d="M152.96,98.808v6.026h-1.484v-.426a1.854,1.854,0,0,1-.593.335,2.123,2.123,0,0,1-.723.129,1.384,1.384,0,0,1-.837-.286,1.975,1.975,0,0,1-.616-.772,2.442,2.442,0,0,1-.228-1.05,2.229,2.229,0,0,1,.236-1,2.206,2.206,0,0,1,.62-.78,1.327,1.327,0,0,1,.8-.308,2.031,2.031,0,0,1,1.316.365l-.015-2.359Zm-1.925,4.653a.933.933,0,0,0,.308-.312.748.748,0,0,0-.129-.959.8.8,0,0,0-.575-.239.757.757,0,0,0-.552.239.78.78,0,0,0-.13.963.884.884,0,0,0,.3.308.708.708,0,0,0,.384.118A.742.742,0,0,0,151.035,103.461Z" transform="translate(-111.666 -98.686)" fill="#1d1b1c"/>
            <path id="Trazado_5309" data-name="Trazado 5309" d="M168.588,106.381a2.113,2.113,0,0,1,.525,1.514c0,.106,0,.188-.007.244l-2.693.03a1.114,1.114,0,0,0,.255.415.584.584,0,0,0,.384.179.9.9,0,0,0,.882-.358l1.088.312a1.462,1.462,0,0,1-.38.643,1.985,1.985,0,0,1-.673.445,2.122,2.122,0,0,1-.81.16,1.194,1.194,0,0,1-.152-.007,1.942,1.942,0,0,1-.97-.343,2.2,2.2,0,0,1-.708-.8,2.269,2.269,0,0,1-.263-1.081,1.565,1.565,0,0,1,.007-.175,1.717,1.717,0,0,1,.308-.9,1.888,1.888,0,0,1,.73-.616,2.255,2.255,0,0,1,1-.221A1.932,1.932,0,0,1,168.588,106.381Zm-2.168.859,1.286.008a.515.515,0,0,0-.179-.343.6.6,0,0,0-.339-.137A.693.693,0,0,0,166.419,107.24Z" transform="translate(-123.498 -103.778)" fill="#1d1b1c"/>
            <path id="Trazado_5310" data-name="Trazado 5310" d="M183.1,105.932a1.43,1.43,0,0,1,.457.377l-.525,1.179a.7.7,0,0,0-.6-.3.692.692,0,0,0-.612.293,1.884,1.884,0,0,0-.232.955v1.461h-1.415v-4.056h1.415v.35a1.56,1.56,0,0,1,.468-.285,1.421,1.421,0,0,1,.521-.1A1.137,1.137,0,0,1,183.1,105.932Z" transform="translate(-134.27 -103.76)" fill="#1d1b1c"/>
            <path id="Trazado_5311" data-name="Trazado 5311" d="M194.524,109.911l-.008-.358a1.585,1.585,0,0,1-.509.282,1.876,1.876,0,0,1-.624.106,1.664,1.664,0,0,1-.928-.278,1.989,1.989,0,0,1-.677-.749,2.167,2.167,0,0,1-.251-1.035,2.13,2.13,0,0,1,.259-1.042,1.926,1.926,0,0,1,1.712-1.012,1.577,1.577,0,0,1,.559.1,1.072,1.072,0,0,1,.422.274v-.327h1.263l.175,4.041Zm-.5-1.347a.871.871,0,0,0,.289-.324.906.906,0,0,0,.107-.43.723.723,0,0,0-.2-.521.674.674,0,0,0-.506-.209.831.831,0,0,0-.586.235.748.748,0,0,0-.251.563.762.762,0,0,0,.11.388.874.874,0,0,0,.289.3.655.655,0,0,0,.75-.007Z" transform="translate(-142.373 -103.778)" fill="#1d1b1c"/>
            <path id="Trazado_5312" data-name="Trazado 5312" d="M218.357,109.911l-.008-.358a1.584,1.584,0,0,1-.509.282,1.875,1.875,0,0,1-.624.106,1.666,1.666,0,0,1-.928-.278,1.991,1.991,0,0,1-.677-.749,2.166,2.166,0,0,1-.251-1.035,2.131,2.131,0,0,1,.259-1.042,1.926,1.926,0,0,1,1.712-1.012,1.578,1.578,0,0,1,.559.1,1.071,1.071,0,0,1,.422.274v-.327h1.263l.175,4.041Zm-.5-1.347a.872.872,0,0,0,.289-.324.906.906,0,0,0,.107-.43.724.724,0,0,0-.2-.521.675.675,0,0,0-.506-.209.831.831,0,0,0-.586.235.748.748,0,0,0-.251.563.762.762,0,0,0,.11.388.871.871,0,0,0,.289.3.655.655,0,0,0,.75-.007Z" transform="translate(-159.374 -103.778)" fill="#1d1b1c"/>
            <path id="Trazado_5313" data-name="Trazado 5313" d="M237.951,109.874h-1.476l-.007-2.115a1.23,1.23,0,0,0-.1-.578.369.369,0,0,0-.346-.16.35.35,0,0,0-.308.232,1.3,1.3,0,0,0-.118.59l.008.144-.008-.023v1.887l-1.431.015-.015-2.108a.975.975,0,0,0-.129-.544.441.441,0,0,0-.738.011,1.1,1.1,0,0,0-.13.586l.008.159-.008-.015.061,1.925h-1.431v-4.01l1.309-.046.008.3a1.459,1.459,0,0,1,.483-.236,2.212,2.212,0,0,1,.62-.083,1.435,1.435,0,0,1,1.058.357,1.057,1.057,0,0,1,.5-.3,2.98,2.98,0,0,1,.814-.091,1.1,1.1,0,0,1,1.031.56,3.83,3.83,0,0,1,.331,1.807Z" transform="translate(-171.093 -103.741)" fill="#1d1b1c"/>
            <path id="Trazado_5314" data-name="Trazado 5314" d="M254.266,100.488a.97.97,0,0,1-.342-.323.8.8,0,0,1-.133-.441.776.776,0,0,1,.278-.609.976.976,0,0,1,.666-.244.8.8,0,0,1,.589.221.784.784,0,0,1,.224.586.941.941,0,0,1-.243.666.8.8,0,0,1-.609.262A.866.866,0,0,1,254.266,100.488Zm-.4.407h1.59v4.033h-1.468Z" transform="translate(-186.787 -98.818)" fill="#1d1b1c"/>
            <path id="Trazado_5315" data-name="Trazado 5315" d="M263.32,107.067a3.657,3.657,0,0,0-.609-.278,1.636,1.636,0,0,0-.51-.087.9.9,0,0,0-.377.068c-.1.046-.148.1-.148.175q0,.191.533.19a2.081,2.081,0,0,1,1.21.3.975.975,0,0,1,.434.845,1.249,1.249,0,0,1-.255.757,1.785,1.785,0,0,1-.685.551,2.147,2.147,0,0,1-.94.206,2.508,2.508,0,0,1-.959-.187,1.848,1.848,0,0,1-.723-.5l.769-.867a1.324,1.324,0,0,0,.419.247,1.358,1.358,0,0,0,.479.088.907.907,0,0,0,.4-.08q.164-.08.164-.194a.135.135,0,0,0-.107-.13,1.192,1.192,0,0,0-.358-.038.852.852,0,0,1-.137.008,1.571,1.571,0,0,1-.719-.171,1.461,1.461,0,0,1-.544-.461,1.037,1.037,0,0,1,.031-1.278,1.7,1.7,0,0,1,.631-.491,1.938,1.938,0,0,1,.837-.186,2.408,2.408,0,0,1,.886.175,2.858,2.858,0,0,1,.81.487Z" transform="translate(-191.425 -103.589)" fill="#1d1b1c"/>
            <path id="Trazado_5316" data-name="Trazado 5316" d="M276.7,106.925a1.587,1.587,0,0,1-.613.552,1.973,1.973,0,0,1-.879.179,1.378,1.378,0,0,1-1.035-.354,1.593,1.593,0,0,1-.342-1.137,5.7,5.7,0,0,1,.038-.579l.106-.875h-.6l-.054-1.2.807-.015.107-.89,1.354-.069-.106.943.852-.015.144,1.241h-1.141l-.076.685c-.01.091-.015.157-.015.2a.87.87,0,0,0,.114.479.347.347,0,0,0,.3.175.656.656,0,0,0,.335-.083,1.276,1.276,0,0,0,.319-.3Z" transform="translate(-200.721 -101.431)" fill="#1d1b1c"/>
            <path id="Trazado_5317" data-name="Trazado 5317" d="M288.159,109.911l-.007-.358a1.584,1.584,0,0,1-.509.282,1.876,1.876,0,0,1-.624.106,1.666,1.666,0,0,1-.928-.278,1.989,1.989,0,0,1-.677-.749,2.167,2.167,0,0,1-.251-1.035,2.13,2.13,0,0,1,.259-1.042,1.927,1.927,0,0,1,1.712-1.012,1.58,1.58,0,0,1,.559.1,1.072,1.072,0,0,1,.422.274v-.327h1.263l.175,4.041Zm-.5-1.347a.871.871,0,0,0,.289-.324.91.91,0,0,0,.106-.43.722.722,0,0,0-.2-.521.674.674,0,0,0-.506-.209.83.83,0,0,0-.586.235.748.748,0,0,0-.251.563.759.759,0,0,0,.111.388.869.869,0,0,0,.289.3.655.655,0,0,0,.75-.007Z" transform="translate(-209.165 -103.778)" fill="#1d1b1c"/>
            <path id="Trazado_5318" data-name="Trazado 5318" d="M305.382,98.808v6.026H303.9v-.426a1.854,1.854,0,0,1-.593.335,2.125,2.125,0,0,1-.723.129,1.383,1.383,0,0,1-.837-.286,1.975,1.975,0,0,1-.616-.772,2.441,2.441,0,0,1-.228-1.05,2.319,2.319,0,0,1,.856-1.777,1.328,1.328,0,0,1,.8-.308,2.031,2.031,0,0,1,1.316.365l-.015-2.359Zm-1.925,4.653a.935.935,0,0,0,.308-.312.748.748,0,0,0-.13-.959.8.8,0,0,0-.574-.239.757.757,0,0,0-.552.239.78.78,0,0,0-.13.963.883.883,0,0,0,.3.308.708.708,0,0,0,.384.118A.742.742,0,0,0,303.457,103.461Z" transform="translate(-220.391 -98.686)" fill="#1d1b1c"/>
          </g>
          <g id="Grupo_1979" data-name="Grupo 1979" transform="translate(114.798 20.535)">
            <path id="Trazado_5319" data-name="Trazado 5319" d="M401.256,86.832a.641.641,0,0,1,.5.172.707.707,0,0,1,.151.483,1.486,1.486,0,0,1-.033.29.9.9,0,0,1-.122.3.741.741,0,0,1-.248.235.809.809,0,0,1-.42.1.589.589,0,0,1-.521-.2.852.852,0,0,1-.134-.491,1.279,1.279,0,0,1,.042-.328.844.844,0,0,1,.134-.286.647.647,0,0,1,.252-.2A.912.912,0,0,1,401.256,86.832Z" transform="translate(-400.433 -82.473)" fill="#1d1a1a"/>
            <path id="Trazado_5320" data-name="Trazado 5320" d="M413.617,75.641a1.446,1.446,0,0,1,1.188.487,2.412,2.412,0,0,1,.4,1.537,4.13,4.13,0,0,1-.151,1.167,2.7,2.7,0,0,1-.42.869,1.83,1.83,0,0,1-.63.542,1.691,1.691,0,0,1-.781.185,1.122,1.122,0,0,1-.7-.193,1.272,1.272,0,0,1-.395-.546c-.017.2-.031.356-.042.462s-.02.192-.025.257-.01.122-.013.172-.009.118-.017.2-.018.2-.029.344-.028.347-.05.6a.22.22,0,0,1-.042.134.212.212,0,0,1-.143.034h-.3a1.378,1.378,0,0,1-.424-.054.629.629,0,0,1-.26-.156.546.546,0,0,1-.134-.248,1.355,1.355,0,0,1-.038-.34q0-.084.025-.454t.063-.886q.037-.516.084-1.113t.088-1.138q.042-.542.071-.961t.046-.58a.431.431,0,0,1,.042-.218.221.221,0,0,1,.134-.026h.327a.958.958,0,0,1,.66.189.592.592,0,0,1,.206.449,1.231,1.231,0,0,1,.5-.554A1.562,1.562,0,0,1,413.617,75.641ZM413,76.758a.669.669,0,0,0-.63.37,2.113,2.113,0,0,0-.2,1.008,3.108,3.108,0,0,0,.029.429,1.389,1.389,0,0,0,.1.378.693.693,0,0,0,.206.269.523.523,0,0,0,.332.1.719.719,0,0,0,.605-.353,1.988,1.988,0,0,0,.243-1.109,2.775,2.775,0,0,0-.03-.407,1.165,1.165,0,0,0-.1-.349.641.641,0,0,0-.21-.243A.594.594,0,0,0,413,76.758Z" transform="translate(-407.692 -74.491)" fill="#1d1a1a"/>
            <path id="Trazado_5321" data-name="Trazado 5321" d="M430.18,80.428a3.009,3.009,0,0,1-.735-.092,1.75,1.75,0,0,1-.655-.319,1.7,1.7,0,0,1-.474-.605,2.152,2.152,0,0,1-.185-.949,4.633,4.633,0,0,1,.033-.5,3.365,3.365,0,0,1,.13-.6,3.226,3.226,0,0,1,.269-.617,2.1,2.1,0,0,1,.449-.55,2.188,2.188,0,0,1,.672-.395,2.626,2.626,0,0,1,.941-.151,2.36,2.36,0,0,1,.739.1,1.322,1.322,0,0,1,.487.273,1.028,1.028,0,0,1,.269.4,1.393,1.393,0,0,1,.084.487,1.291,1.291,0,0,1-.155.655,1.434,1.434,0,0,1-.4.45,2,2,0,0,1-.55.282,4.444,4.444,0,0,1-.6.155,4.135,4.135,0,0,1-.542.068c-.165.008-.293.013-.382.013a1.1,1.1,0,0,0,.046.315.818.818,0,0,0,.138.273A.708.708,0,0,0,430,79.3a.821.821,0,0,0,.369.076.68.68,0,0,0,.34-.071.771.771,0,0,0,.2-.16c.05-.059.093-.112.13-.159a.175.175,0,0,1,.147-.072.888.888,0,0,1,.147.021.655.655,0,0,1,.214.088.673.673,0,0,1,.194.185.509.509,0,0,1,.084.3.623.623,0,0,1-.151.42,1.11,1.11,0,0,1-.39.286,2.172,2.172,0,0,1-.533.159A3.411,3.411,0,0,1,430.18,80.428Zm.16-3.67a.487.487,0,0,0-.315.105.879.879,0,0,0-.218.265,1.385,1.385,0,0,0-.134.352c-.031.129-.055.252-.072.37a1.889,1.889,0,0,0,.844-.176.522.522,0,0,0,.323-.479.481.481,0,0,0-.1-.3A.385.385,0,0,0,430.339,76.758Z" transform="translate(-420.19 -74.491)" fill="#1d1a1a"/>
            <path id="Trazado_5322" data-name="Trazado 5322" d="M445.209,74q-.025.32-.054.63t-.055.588q-.025.277-.038.5c-.009.146-.013.258-.013.336a.561.561,0,0,0,.05.29.191.191,0,0,0,.168.071.352.352,0,0,0,.16-.034.934.934,0,0,0,.126-.075l.1-.076a.176.176,0,0,1,.105-.034.14.14,0,0,1,.109.068.6.6,0,0,1,.051.31,1.027,1.027,0,0,1-.252.731,1.15,1.15,0,0,1-.865.269,1.242,1.242,0,0,1-.895-.281,1.153,1.153,0,0,1-.29-.861q0-.126.013-.3t.038-.45q.025-.277.063-.68t.08-1h-.445c-.045,0-.072-.01-.08-.03a.234.234,0,0,1-.013-.088l.025-.428a1.89,1.89,0,0,1,.029-.214.465.465,0,0,1,.084-.189.431.431,0,0,1,.181-.134.793.793,0,0,1,.311-.051q.059-.151.134-.361c.05-.14.1-.276.151-.407a2.919,2.919,0,0,1,.147-.332c.047-.089.091-.134.13-.134h.243a.525.525,0,0,1,.487.218.975.975,0,0,1,.134.521c0,.112-.008.277-.025.5h.882c.09,0,.134.04.134.118l-.033.454a.723.723,0,0,1-.138.407.618.618,0,0,1-.5.155Z" transform="translate(-430.994 -71.628)" fill="#1d1a1a"/>
          </g>
        </g>
      </g>
    </g>
  </g>
</svg>
