<svg xmlns="http://www.w3.org/2000/svg" width="90" height="100.159" viewBox="0 0 90 100.159">
  <g id="Artwork_2" data-name="Artwork 2" transform="translate(45 50.079)">
    <g id="Grupo_2558" data-name="Grupo 2558" transform="translate(-45 -50.079)">
      <g id="Grupo_2555" data-name="Grupo 2555" transform="translate(7.639 4.612)">
        <path id="Trazado_5514" data-name="Trazado 5514" d="M123.55,70.159l-.006-.005c-1.238-2.536-2.756-4.49-4.084-7.129-1.924-3.809-3.6-7.99-6.369-11.463-1.809-2.264-2.409-5.33-3.024-8.327-.617-3.019-1.052-6.073-1.467-9.135a33.064,33.064,0,0,0-2.835-8.18h0c-.478-.753-.911-1.447-1.145-1.807l-.2-.279-.307-.389c-.494-.655-1-1.27-1.494-1.826-2.657-2.963-4.022-3.037-6.283-3.162-2.228-.124-5.174,1.462-8.06,4.319a27.59,27.59,0,0,0-3.612,5.7c-.62,1.2-1.09,2.2-1.478,2.987a14.782,14.782,0,0,0-1.425,5.131c-.661,4.339.006,4.425-.576,9.62-.212,1.882-.742,3.511-.726,4.5h0l-2.375.626a227.147,227.147,0,0,1-23.736,3.943c-1.228.054-1.752,4.018-.859,4.361,1.385.531,6-.044,7.14-.081a61.777,61.777,0,0,0,8.132-1.335c4.847-.891,7.443-1.549,9.131-1.814l1.4-.691,0,0c-2.894,10.254-4.223,29.266.2,29.28,4.422.242,5.969.417,9.9.6a19.319,19.319,0,0,0,1.98-.107c1.185.134,2.125-.035,3.337.014a2.187,2.187,0,0,0,1.273-.165c.5-.059,1.017-.128,1.614-.214,2.08-.358,4.009-.284,5.045-1.448,1.574-1.77,1.7-3.536,2.524-6.081,2.627-8.144,3-10.129,2.507-14.969a2.623,2.623,0,0,0-2.332-2.414c-.716,0-1.28,1.428-1.421,2.381-.541,3.641-.414,5.572-1.675,9.034-1.508,4.139-1.962,6.1-4.694,9.65-.285.37-.451.449-.788.823-.178.2-.536.376-.9.683-.572.336-.72.615-1.178.19-.107-.1-.125-.179-.019-.375a25.016,25.016,0,0,0,6.308-11.264,91.024,91.024,0,0,0,2.13-10.489,1.839,1.839,0,0,1,1.534-1.746,3.88,3.88,0,0,1,2.488.588,3.248,3.248,0,0,1,1.187,1.692c1.7,5.872-.973,12.949-2.835,19.178a11.484,11.484,0,0,1-1.948,3.785l0,.009c2.216.122,4.011.193,5.8.324,2.3.171,2.537-2.265,2.883-4.744.929-6.627.563-7.868.54-14.931-.007-1.53.407-2.333.525-4.474l.006,0c3.608,5.028,5.732,6.545,7.568,11.2.007.019-.024.039-.024.039-2.312-.018-1.177,2.017-.892,2.87.786,2.354.525,3,1.816,3.155.8.1,1.093-1.531,1.106-1.439.326,2.3,1.934,1.938,2.346,1.745,1.761-.826.011-1.593.933-2.79,1.778,3.157,2.925-.769,2.628-2.051C127.808,69.059,125.456,70.887,123.55,70.159ZM96.734,60.3a6.626,6.626,0,0,1,2.291-3.221.663.663,0,0,1,.629-.169c.161.069.269.245.1.388a6.089,6.089,0,0,0-2.127,2.917C97.546,60.574,96.641,60.693,96.734,60.3Zm6.254-2.683A5.622,5.622,0,0,0,99.85,62.9c.011.384-.887.528-.9.073A6.338,6.338,0,0,1,102.6,57.11C103.046,56.894,103.536,57.35,102.988,57.615Zm8.6,5.7c-.045.388-.951.515-.9.074a4.81,4.81,0,0,0-3.584-5.375c-.59-.119-.112-.712.313-.627A5.316,5.316,0,0,1,111.591,63.317Zm.447-3.936a3.66,3.66,0,0,0-2.4-2.984c-.531-.184.132-.733.513-.6a4.184,4.184,0,0,1,2.778,3.347C113.006,59.566,112.114,59.793,112.038,59.381Zm10.545,16.746c-.056.557-.4.979-.761.942s-.613-.518-.557-1.075.4-.979.761-.942S122.64,75.57,122.583,76.127Zm-.928-3.384c-.122-.677.979-.191,1.813-.631.525-.278,1.123-1.414,1.724.038.263.636.018,2.119-1.058,2.313A2.636,2.636,0,0,1,121.655,72.743Zm3.264,4.513a1.053,1.053,0,1,1,.462-1.214A.932.932,0,0,1,124.919,77.257Zm2.618-2.353a1.029,1.029,0,1,1-.222-1.186A.876.876,0,0,1,127.537,74.9Z" transform="translate(-47.416 -18.448)" fill="#fff"/>
        <path id="Trazado_5515" data-name="Trazado 5515" d="M70.53,88.192c1.129-.115,5.973-.654,10.839-1.514a62.047,62.047,0,0,0,8.591-1.923c.51-.223,1.215-.072,1.338-1.132,0-.014.219-.988.219-.988.679-4.823.311-11.019.7-14.031a8.878,8.878,0,0,1,.048-1.175c.71-3.972-.159.695-2.361.5-3.972-.345-8.846-.343-11.128.366-1.918.6-.942-.458-2.329-2.652a.414.414,0,0,1-.035-.073,8.767,8.767,0,0,1-.4-1.143c-1.484,5.234-3.366,11.757-4.727,17.025l-.022.062a4.111,4.111,0,0,0,.531,2.039c.149.339-1.82,1.927-2.7,3.211a7.472,7.472,0,0,0-.436,1.051C68.352,88.776,69.475,88.3,70.53,88.192Z" transform="translate(-59.093 -52.933)" fill="#fff"/>
        <path id="Trazado_5516" data-name="Trazado 5516" d="M61.025,175.39c-2.052.235-4.251,1.148-9.846,1.968a72.863,72.863,0,0,1-7.907.979c-1.152.038-2.337.1-3.972.116h0l-1,.067h0l-.327.049c-.665,2.028-1.358,4.136-2.01,6.252-6.106-4.679-5.858,14.217-4.891,17.232a.208.208,0,0,0,.178.137c1.682.062,8.326.311,8.469.338.555.186.661.543.1,1.03-3.976,3.488-6.217,11.062-3.14,16.9a12.4,12.4,0,0,0,3.43,3.95c1.248.914,3.265,2.166,4.9,2.185,1.456.014,4.547-1.616,4.409-3.407-.127-1.63-2.264-2.889-3.476-3.034-4.434-.519-6.475-5.1-5.7-8.559.858-3.851,1.649-6.619,5.453-8.227a.95.95,0,0,1,.326-.073.99.99,0,0,1,.116-.031,81.463,81.463,0,0,1,8.326-.865c2.374.029,4-.025,5.637.067h0C57.564,200.728,59.219,182.933,61.025,175.39Z" transform="translate(-30.551 -136.151)" fill="#fff"/>
      </g>
      <g id="Grupo_2557" data-name="Grupo 2557">
        <path id="Trazado_5517" data-name="Trazado 5517" d="M51.908,107.124c-1.81-.423-5.682-.992-9.548-1.882a.365.365,0,0,0-.437.271l-.006.027a.367.367,0,0,0,.274.445l9.548,1.854a.368.368,0,0,0,.409-.19h0A.366.366,0,0,0,51.908,107.124Z" transform="translate(-31.428 -78.922)" fill="#1d1a1a"/>
        <path id="Trazado_5518" data-name="Trazado 5518" d="M55.4,94.4c-1.622-.6-4.776-2.4-8.387-3.741a.426.426,0,0,0-.546.249l0,.008a.425.425,0,0,0,.245.548c3.593,1.386,6.718,3.259,8.333,3.882a.423.423,0,0,0,.549-.247l.057-.15A.423.423,0,0,0,55.4,94.4Z" transform="translate(-34.826 -67.973)" fill="#1d1a1a"/>
        <path id="Trazado_5519" data-name="Trazado 5519" d="M57.272,116.774l.194-.647a.335.335,0,0,0-.317-.431c-1.544-.016-3.709.433-6.764.4a.334.334,0,0,0-.337.333v.007a.334.334,0,0,0,.316.336c3.578.193,6.909,0,6.909,0" transform="translate(-37.535 -86.769)" fill="#1d1a1a"/>
        <path id="Trazado_5520" data-name="Trazado 5520" d="M61.827,188.976" transform="translate(-46.369 -141.727)" fill="#1d1a1a"/>
        <path id="Trazado_5521" data-name="Trazado 5521" d="M329.317,231.129" transform="translate(-246.98 -173.341)" fill="#1d1a1a"/>
        <path id="Trazado_5522" data-name="Trazado 5522" d="M330.988,231.08c.263.635.018,2.119-1.058,2.313a2.635,2.635,0,0,1-2.479-1.72c-.122-.677.979-.19,1.813-.631C329.789,230.764,330.387,229.628,330.988,231.08Z" transform="translate(-245.574 -172.762)" fill="#1d1a1a"/>
        <ellipse id="Elipse_668" data-name="Elipse 668" cx="1.014" cy="0.662" rx="1.014" ry="0.662" transform="translate(81.386 63.169) rotate(-84.223)" fill="#1d1a1a"/>
        <ellipse id="Elipse_669" data-name="Elipse 669" cx="0.801" cy="1.022" rx="0.801" ry="1.022" transform="translate(83.771 61.708) rotate(-17.238)" fill="#1d1a1a"/>
        <ellipse id="Elipse_670" data-name="Elipse 670" cx="0.708" cy="0.978" rx="0.708" ry="0.978" transform="matrix(0.688, -0.725, 0.725, 0.688, 85.854, 60.239)" fill="#1d1a1a"/>
        <path id="Trazado_5523" data-name="Trazado 5523" d="M113.5,84.991" transform="translate(-85.119 -63.741)" fill="#1d1a1a"/>
        <path id="Trazado_5524" data-name="Trazado 5524" d="M54.829,210.881" transform="translate(-41.12 -158.156)" fill="#1d1a1a"/>
        <path id="Trazado_5525" data-name="Trazado 5525" d="M240.308,172.925a6.338,6.338,0,0,0-3.649,5.866c.013.455.91.311.9-.073a5.622,5.622,0,0,1,3.138-5.288c.548-.264.058-.72-.388-.5Z" transform="translate(-177.487 -129.648)" fill="#1d1a1a"/>
        <path id="Trazado_5526" data-name="Trazado 5526" d="M230.072,172.368a6.625,6.625,0,0,0-2.291,3.221c-.093.4.812.275.9-.084a6.091,6.091,0,0,1,2.127-2.917c.165-.143.057-.319-.1-.388a.663.663,0,0,0-.629.168Z" transform="translate(-170.825 -129.123)" fill="#1d1a1a"/>
        <path id="Trazado_5527" data-name="Trazado 5527" d="M268.467,174.81a4.81,4.81,0,0,1,3.584,5.375c-.052.441.854.314.9-.074a5.316,5.316,0,0,0-4.171-5.928c-.425-.086-.9.508-.313.627Z" transform="translate(-201.137 -130.627)" fill="#1d1a1a"/>
        <path id="Trazado_5528" data-name="Trazado 5528" d="M278.812,168.378a3.66,3.66,0,0,1,2.4,2.984c.077.412.968.185.89-.238a4.185,4.185,0,0,0-2.778-3.347c-.382-.132-1.044.417-.513.6Z" transform="translate(-208.954 -125.814)" fill="#1d1a1a"/>
        <g id="Grupo_2556" data-name="Grupo 2556" transform="translate(20.793 84.76)">
          <path id="Trazado_5529" data-name="Trazado 5529" d="M104.465,349.418a6.337,6.337,0,0,0-4.4-5.329c-.435-.133-.585.764-.218.876a5.622,5.622,0,0,1,4.012,4.66c.076.6.665.285.6-.207Z" transform="translate(-95.524 -342.809)" fill="#1d1a1a"/>
          <path id="Trazado_5530" data-name="Trazado 5530" d="M115.534,342.241a6.622,6.622,0,0,0-2.322-3.2c-.345-.214-.52.682-.206.877a6.089,6.089,0,0,1,2.087,2.946c.083.2.285.156.4.025a.661.661,0,0,0,.041-.65Z" transform="translate(-105.422 -339.009)" fill="#1d1a1a"/>
          <path id="Trazado_5531" data-name="Trazado 5531" d="M89.811,380.79a4.81,4.81,0,0,1-6.237,1.684c-.4-.189-.57.71-.217.876a5.316,5.316,0,0,0,6.948-2.063c.217-.376-.194-1.018-.494-.5Z" transform="translate(-83.165 -370.197)" fill="#1d1a1a"/>
          <path id="Trazado_5532" data-name="Trazado 5532" d="M96.042,391.02a3.66,3.66,0,0,1-3.594,1.325c-.415-.059-.484.859-.057.919a4.185,4.185,0,0,0,4.058-1.566c.247-.319-.063-1.123-.406-.678Z" transform="translate(-89.867 -377.917)" fill="#1d1a1a"/>
        </g>
        <path id="Trazado_5533" data-name="Trazado 5533" d="M89.719,58.158a3.38,3.38,0,0,0-1.3-2.131c-1.073-1.028-2.032-.786-4.051-.326-.536.125-2.518-5.592-3.32-6.987-2.121-3.686-4.017-7.771-6.644-11.4-1.468-2.023-1.854-4.8-2.352-7.459-.582-3.109-.977-5.824-1.5-8.23a.6.6,0,0,0,0-.109,36.328,36.328,0,0,0-3.756-10.861v-.006C72.339,5.2,71.638,14.33,76.141,17.8a1.066,1.066,0,0,0,1.717-.8c.253-6.863-.417-14.663-4.3-14.44-1.517.119-7.7,2.919-9.454,3.726-1.6-2.167-3.194-3.3-7.3-3.528a10.192,10.192,0,0,0-7.507,2.516C47.116,3.722,42.171.289,40.821.034,36.939-.62,34.8,8.253,33.273,12.823a.689.689,0,0,0,.732.9c5.582-.539,6.293-9.6,11.606-4.014-.071.143-.158.324-.27.555-.435.9-1.091,2.269-1.788,3.645a20.217,20.217,0,0,0-1.491,3.384l-.341.7c-.283.4.818-5.144-1.246-1.645-1.648,2.793-1.914,2.024-3.192,2.037-2.817.029-5.719-.392-9.436.246-1.13.194-1.149-.812-1.56-1.508a11.5,11.5,0,0,1-1.1-2.721c-.587-1.151-.371-1.522-1.347-.035-.24.631-.445,1.168-.55,1.495-1.763,5.554-3.8,10.781-4.724,16.532-.3,1.868.848,2.724.58,2.966a9.929,9.929,0,0,0-2.624,2.934l-.933,1.921a9.3,9.3,0,0,1-1.883.342s-1.069.285-1.748,2.493c-.238.774-1.276,3.749.384,3.84.286.013.888.158,1.246.159l-.066.328h0c-.432,1.291-.893,2.663-1.372,4.086-6.367-1.623-6.165,14.586-5.52,19.088-.126.028.075.464-.268.483-4.207.633-5.305.736-6.259,1.547-.924.785,4.421-.942,10.465-.575a32.023,32.023,0,0,1,4.319.384c-3.622,4.464-4.4,8.972-2.923,14.919A12.473,12.473,0,0,0,17,94.052c2.329,1.7,4.867,2.975,7.664,1.632,1.888-.9,3.444-3.218,2.9-5.323-.677-2.6-3.814-2.472-5.853-3.044-4.091-1.149-3.715-6.4-3.28-7.893,1.326-4.549,2.082-5.256,4.455-6.747.027-.01,1.278-.073,1.307-.088a67.194,67.194,0,0,1,8.636-.421c3.277-.1,4.323.214,9.675.4,8.758.3,12-.176,18.248-.435,6.379-.265,9.8-.847,18.462-.03.173.016.339.216.412.059.087-.187.441-.47.265-.588-2.065-.564-6.644-1.323-6.644-1.323,1.675-6.525.668-13.605,1.032-20.248h0c1.08,1.547,3.9,3.878,4.985,6.019.262.516.432.956.65,1.371-2.387.668-1.144,2.412-.74,3.892.483,1.773.854,3.534,2.356,3.469,1.651-.071,2.052.715,4.137.252.662-.147.758-.016,1.08-.678a2.14,2.14,0,0,1,.577-.914c.142-.165.507-.079.676-.12C90.3,62.743,90.2,62.158,89.719,58.158ZM17.205,39.5a7.466,7.466,0,0,1,.436-1.051c.881-1.284,2.85-2.872,2.7-3.211a4.11,4.11,0,0,1-.531-2.039l.022-.062c1.3-5.023,3.068-11.186,4.516-16.285a.232.232,0,0,1,.44-.019c.051.132.1.236.166.42l.041.083c1.38,2.19.408,3.24,2.324,2.645,2.281-.709,7.155-.711,11.128-.366,2.2.191,3.07-4.479,2.361-.506a8.913,8.913,0,0,0-.048,1.178c-.385,3.012-.017,9.208-.7,14.031,0,0-.217.974-.219.988-.124,1.06-.828.909-1.338,1.132a62.009,62.009,0,0,1-8.591,1.923c-4.866.86-9.71,1.4-10.839,1.514C18.021,39.982,16.9,40.457,17.205,39.5ZM37.188,70.934c-1.637-.092-3.262-.038-5.637-.067a81.575,81.575,0,0,0-8.326.865.991.991,0,0,0-.116.031.949.949,0,0,0-.326.073c-3.8,1.608-4.595,4.376-5.453,8.228-.772,3.461,1.27,8.04,5.7,8.559,1.211.144,3.348,1.4,3.476,3.033.138,1.791-2.954,3.422-4.409,3.407-1.632-.018-3.649-1.271-4.9-2.185a12.4,12.4,0,0,1-3.43-3.951c-3.077-5.843-.836-13.416,3.14-16.9.556-.488.45-.844-.105-1.03-.143-.026-6.787-.275-8.469-.338a.208.208,0,0,1-.178-.137C7.2,67.5,6.948,48.607,13.054,53.286c.652-2.117,1.345-4.225,2.01-6.252l.327-.049h0l1-.067h0c1.635-.016,2.82-.078,3.972-.116a72.807,72.807,0,0,0,7.907-.979c5.6-.821,7.794-1.733,9.846-1.968-1.806,7.543-3.461,25.338-.924,27.079ZM86.374,61.47c-.922,1.2.828,1.964-.933,2.79-.412.193-2.02.551-2.346-1.745-.013-.093-.306,1.536-1.106,1.439-1.291-.157-1.03-.8-1.816-3.155-.285-.854-1.42-2.888.892-2.87,0,0,.032-.021.024-.04-1.836-4.656-3.96-6.173-7.568-11.2l-.006,0c-.119,2.141-.532,2.944-.525,4.474.022,7.063.389,8.3-.54,14.931-.347,2.479-.583,4.914-2.884,4.744-1.792-.131-3.587-.2-5.8-.324l0-.009a11.49,11.49,0,0,0,1.948-3.785c1.862-6.229,4.531-13.306,2.835-19.178a3.248,3.248,0,0,0-1.187-1.692,3.88,3.88,0,0,0-2.488-.588,1.839,1.839,0,0,0-1.534,1.746A91.024,91.024,0,0,1,61.2,57.5,25.014,25.014,0,0,1,54.9,68.764c-.106.2-.088.275.019.375.458.425.606.145,1.178-.191.36-.308.718-.486.9-.683.338-.374.5-.453.788-.823,2.733-3.546,3.186-5.511,4.694-9.65,1.262-3.462,1.135-5.394,1.675-9.034.141-.953.706-2.378,1.421-2.381A2.623,2.623,0,0,1,67.9,48.791c.5,4.84.12,6.825-2.507,14.969-.821,2.544-.95,4.31-2.525,6.08C61.832,71,59.9,70.93,57.822,71.288c-.6.086-1.119.155-1.614.214a2.188,2.188,0,0,1-1.273.166c-1.212-.049-2.152.12-3.337-.015a19.323,19.323,0,0,1-1.98.107c-3.934-.179-5.481-.354-9.9-.6-4.42-.014-3.091-19.026-.2-29.28l0,0-1.4.691c-1.688.266-4.284.924-9.131,1.814a61.729,61.729,0,0,1-8.132,1.335c-1.141.037-5.755.612-7.14.081-.893-.342-.369-4.306.859-4.361A227.141,227.141,0,0,0,38.3,37.5l2.375-.626h0c-.016-.987.513-2.617.726-4.5.582-5.195-.086-5.281.576-9.62a14.782,14.782,0,0,1,1.425-5.131c.388-.79.858-1.786,1.478-2.987a27.586,27.586,0,0,1,3.612-5.7c2.885-2.857,5.832-4.443,8.06-4.319,2.261.126,3.626.2,6.283,3.162.5.557,1,1.171,1.494,1.826L64.64,10l.2.279c.234.36.667,1.054,1.145,1.807h0a33.063,33.063,0,0,1,2.835,8.18c.415,3.061.85,6.116,1.467,9.134.615,3,1.215,6.064,3.024,8.327,2.774,3.473,4.446,7.654,6.369,11.463,1.328,2.639,2.847,4.593,4.084,7.129l.006.006c1.906.728,4.258-1.1,5.23,3.092C89.3,60.7,88.152,64.627,86.374,61.47Z" transform="translate(0 0)" fill="#1d1a1a"/>
      </g>
    </g>
  </g>
</svg>
