<svg id="Layer_4" data-name="Layer 4" xmlns="http://www.w3.org/2000/svg" width="50" height="50" viewBox="0 0 50 50">
  <path id="Trazado_5483" data-name="Trazado 5483" d="M9.562,58.478H48.438A5.79,5.79,0,0,0,54,52.485V25.993A5.79,5.79,0,0,0,48.438,20H29v5.156a10.3,10.3,0,0,1-4.17,8.4l-6.08,4.367a6.836,6.836,0,0,1-8.036,0L4.6,33.554c-.214-.154-.4-.327-.6-.491V52.485A5.79,5.79,0,0,0,9.562,58.478ZM36.054,28.754a2.574,2.574,0,0,1,2.473-2.665h7.795a2.574,2.574,0,0,1,2.473,2.665V32.6a2.574,2.574,0,0,1-2.473,2.665H38.527A2.574,2.574,0,0,1,36.054,32.6Zm-18.589,20.1H37.821a1.929,1.929,0,0,1,0,3.848H17.464a1.929,1.929,0,0,1,0-3.848Zm-6.464,0a1.929,1.929,0,0,1,0,3.848,1.929,1.929,0,0,1,0-3.848Z" transform="translate(-4 -8.478)" fill="#1209e0"/>
  <path id="Trazado_5484" data-name="Trazado 5484" d="M6.58,29.895l6.08,4.367a3.477,3.477,0,0,0,4.107,0l6.08-4.367a6.385,6.385,0,0,0,2.58-5.195V12.907a1.147,1.147,0,0,0-.964-1.174,19.815,19.815,0,0,1-5.357-1.558,22.276,22.276,0,0,1-3.5-1.885,1.626,1.626,0,0,0-1.786,0,22.324,22.324,0,0,1-3.473,1.924,19.815,19.815,0,0,1-5.357,1.558A1.14,1.14,0,0,0,4,12.907V25.076a6.344,6.344,0,0,0,2.58,4.819ZM17.027,17.466a1.7,1.7,0,0,1,2.527,0,2.032,2.032,0,0,1,0,2.722l-4.241,4.569a1.692,1.692,0,0,1-2.33.183l-1.839-1.549a2.024,2.024,0,0,1-.357-2.693,1.7,1.7,0,0,1,2.5-.385l.625.5,1.188-1.27Z" transform="translate(-4 -8.022)" fill="#1209e0"/>
</svg>
