<svg id="Icon" xmlns="http://www.w3.org/2000/svg" width="70" height="70" viewBox="0 0 70 70">
  <g id="outline" transform="translate(0)">
    <path id="Trazado_1420" data-name="Trazado 1420" d="M100.768,60.333H97.842l-.889-1.688a1.236,1.236,0,0,0-1.1-.645H90.943a1.236,1.236,0,0,0-1.1.645L87.69,62.739l-.972-.4A20.921,20.921,0,0,1,76.356,53.32a7.03,7.03,0,0,0,.619-4.623l-.768-3.647V41.666A1.2,1.2,0,0,0,74.979,40.5h-4.74l-8.068-2.19-5.9-6.724-.006-.006a1.254,1.254,0,0,0-.937-.413H54.1V30a3.6,3.6,0,0,0,3.684-3.5V22.8a3.483,3.483,0,0,0,2.4-3.891A3.635,3.635,0,0,0,56.558,16H51.031a5.4,5.4,0,0,0-5.526,5.25v.583a1.262,1.262,0,0,0-.868.342l-1.029.977a8.085,8.085,0,0,0-1.658,9.7,1.173,1.173,0,0,0,.086.138,2.645,2.645,0,0,0-.121.4,3.865,3.865,0,0,0-.745.912l-3.564,6.1a6.466,6.466,0,0,0,.388,7.1c.019.027.04.052.061.077l7.219,8.241c0,.038,1.353,6.457,1.353,6.457l-8.851,8.408A6.605,6.605,0,0,0,35.7,75l-3.346,3.179a1.126,1.126,0,0,0,0,1.65l6.14,5.833a1.274,1.274,0,0,0,1.737,0l1.2-1.137a5.087,5.087,0,0,0,1.619-3.713V79.482l9.51-9.034-1.543,4.47a1.142,1.142,0,0,0-.037.135,8.393,8.393,0,0,0,.667,5.376v4.4A1.2,1.2,0,0,0,52.873,86h8.6A1.2,1.2,0,0,0,62.7,84.833v-.976A5.138,5.138,0,0,0,60.411,79.6l1.325-5.456a7.387,7.387,0,0,0,5.576-.947l.3-.19v2.262L65.242,80.9a1.112,1.112,0,0,0-.025.8l1.228,3.5a1.224,1.224,0,0,0,1.165.8h9.824a1.252,1.252,0,0,0,.968-.449,1.121,1.121,0,0,0,.223-1L77.508,80.3l2.085-3.962,5.21,1.237v7.256A1.2,1.2,0,0,0,86.031,86H89.54a1.211,1.211,0,0,0,1.213-.979l1.34-7.8.38-.361.8,1.141-1.039,2.959a1.145,1.145,0,0,0,.616,1.412l2.456,1.167a1.266,1.266,0,0,0,1.571-.4l2.456-3.5A1.126,1.126,0,0,0,99.54,79V75.5a1.129,1.129,0,0,0-.246-.7l-2.953-3.74a1.23,1.23,0,0,0-.083-.094l.261-1.485a1.163,1.163,0,0,0,.548-.789,1.122,1.122,0,0,0-.249-.915l.078-.443h1.415a1.281,1.281,0,0,0,.549-.123l2.456-1.167A1.162,1.162,0,0,0,102,65V61.5A1.2,1.2,0,0,0,100.768,60.333ZM85.443,64.359,84.431,65h-9.3a7.8,7.8,0,0,0-3.449.794A4.96,4.96,0,0,0,68.987,65a7.672,7.672,0,0,0-5.316,2.092c-.091.086-.185.168-.281.246l.221-.91a11.118,11.118,0,0,0,.315-2.623v-.076a11.1,11.1,0,0,0-1.059-4.738l-3.853-8.238v-2.16c0-.869-.028-1.74-.078-2.609l.918.291a1.287,1.287,0,0,0,.388.06h8.4l.2.063v.96a7.359,7.359,0,0,0,5.289,6.955A23.3,23.3,0,0,0,85.443,64.359ZM50.33,49.833l-4.613-7.012,2.343-3.709h0a4.776,4.776,0,0,0,.48-4.153A3.807,3.807,0,0,0,47.6,33.5h6.718l1.311,6.226c.054.257.1.516.153.774H52.873a1.2,1.2,0,0,0-1.228,1.167,8.406,8.406,0,0,1-.969,3.9l-.13.246a1.116,1.116,0,0,0,.054,1.135,1.244,1.244,0,0,0,1.045.553h4.9c.009.365.014,2.333.014,2.333Zm6.089-4.667H53.5a10.679,10.679,0,0,0,.534-2.333h2.132Q56.324,44,56.419,45.166Zm17.67,1.727.476,2.263a4.783,4.783,0,0,1-.232,2.73,4.977,4.977,0,0,1-3.04-4.529v-.182l.84.266a1.287,1.287,0,0,0,.938-.063Zm-.339-2.448-1.322.628-2.036-.645.56-1.6h2.8ZM61.132,40.455l7.363,2L67.953,44H60.441l-1.725-.546c-.161-1.4-.384-2.8-.675-4.185l-.56-2.659,3.044,3.471a1.237,1.237,0,0,0,.605.374ZM55.329,26.5A1.2,1.2,0,0,1,54.1,27.667H52.873a1.2,1.2,0,0,0-1.228,1.167v1.3l-1.228-1.867v-1.49L52.4,23h2.925Zm-4.3-8.167h5.526a1.168,1.168,0,1,1,0,2.333H51.645a1.236,1.236,0,0,0-1.1.645l-2.091,3.973-.495-.752V21.25A3,3,0,0,1,51.031,18.333Zm-5.749,6.529,4.147,6.3H44.793a3.1,3.1,0,0,0-.886.129A5.842,5.842,0,0,1,45.282,24.862ZM39.754,41.537l3.564-6.1a1.609,1.609,0,0,1,1.533-.768A1.573,1.573,0,0,1,46.209,35.7a2.546,2.546,0,0,1-.256,2.214l-2.73,4.323a1.117,1.117,0,0,0,.012,1.219L48.858,52l-2.042,1.94-6.837-7.8A4.216,4.216,0,0,1,39.754,41.537Zm-.24,30.8,9.316-8.85a1.129,1.129,0,0,0,.336-1.054l-1.3-6.193,3.424-3.253a1.136,1.136,0,0,0,.359-.825H53.25l2.444,6.193A6.758,6.758,0,0,1,54,65.776l-12.3,11.683-3.533-2.517A4.352,4.352,0,0,1,39.514,72.341Zm.18,10.529-.329.313L34.961,79l2.063-1.96,3.569,2.543v1.225a2.826,2.826,0,0,1-.9,2.063Zm14.408.8V81.333H58.71a2.884,2.884,0,0,1,1.525,2.333ZM58.037,79h-4.36a6.148,6.148,0,0,1-.3-3.424l3.071-8.9a8.969,8.969,0,0,0,1.55-9.14l-2.121-5.374h1.114l3.635,7.771a8.88,8.88,0,0,1,.847,3.79V63.8a8.9,8.9,0,0,1-.251,2.1l-.626,2.576q-.248.023-.5.023H57.786a1.239,1.239,0,0,0-1.083.616,1.117,1.117,0,0,0,.061,1.2l.716,1.021A6.924,6.924,0,0,0,59.445,73.2ZM65.95,71.26a4.825,4.825,0,0,1-5.715-.428,7.664,7.664,0,0,0,5.174-2.09,5.166,5.166,0,0,1,3.579-1.408,2.447,2.447,0,0,1,.527.058,7,7,0,0,0-1.557,2.6Zm9.066,9.189.847,3.217H73.407l-.787-2.244,2.139-4.065,1.824-1.732.569.135-2.044,3.884A1.113,1.113,0,0,0,75.015,80.449Zm15.059-4.608a1.148,1.148,0,0,0-.344.637L88.5,83.666H87.259v-7a1.18,1.18,0,0,0-.93-1.132L76.5,73.2a1.272,1.272,0,0,0-1.167.306l-2.456,2.333a1.169,1.169,0,0,0-.23.3L70.2,80.81a1.114,1.114,0,0,0-.067.891l.69,1.965H68.5l-.806-2.3,2.289-5.436a1.115,1.115,0,0,0,.088-.433V72.141a4.659,4.659,0,0,1,1.482-3.4,5.069,5.069,0,0,1,.7-.556c.021-.013.042-.026.061-.041a5.215,5.215,0,0,1,2.815-.811H84.8a1.274,1.274,0,0,0,.681-.2L87.4,65.925a11.274,11.274,0,0,0,6.625,3.593l-.542,3.088Zm7.009.047v2.758l-1.649,2.349-.534-.254.891-2.54a1.118,1.118,0,0,0-.143-1.016l-1.406-2,1.253-1.19c.018-.017.032-.036.048-.053Zm2.456-11.61L98.022,65H95.855a1.211,1.211,0,0,0-1.212.975l-.218,1.242a8.783,8.783,0,0,1-5-2.634,1.159,1.159,0,0,0,.159-.227L91.7,60.333H95.1l.889,1.688a1.236,1.236,0,0,0,1.1.645H99.54Z" transform="translate(-31.996 -16)" fill="#353631"/>
  </g>
</svg>
