<svg id="Grupo_2553" data-name="Grupo 2553" xmlns="http://www.w3.org/2000/svg" width="143.535" height="10.512" viewBox="0 0 143.535 10.512">
  <path id="Trazado_5300" data-name="Trazado 5300" d="M22.015,108.876a4.415,4.415,0,0,1-1.439-2.037,8.9,8.9,0,0,1-.5-3.141,15.205,15.205,0,0,1,.514-4.009l2.763.668a13.148,13.148,0,0,0-.205,1.318q-.077.712-.167,1.805l-.039.372q0,3.161,1.3,3.162,1.272,0,1.273-3.1a11.622,11.622,0,0,0-.168-1.605,20.368,20.368,0,0,0-.424-2.057l2.724-.77a13.13,13.13,0,0,1,.681,4.433,8.2,8.2,0,0,1-.5,3,4.417,4.417,0,0,1-1.42,1.973,3.49,3.49,0,0,1-2.166.694A3.59,3.59,0,0,1,22.015,108.876Z" transform="translate(-20.074 -99.097)" fill="#1d1b1c"/>
  <path id="Trazado_5301" data-name="Trazado 5301" d="M44.725,106.329a2.557,2.557,0,0,1,.527,1.792l-.077,4.537H42.823l.013-3.02a2.632,2.632,0,0,0-.251-1.337.818.818,0,0,0-.739-.4,1.068,1.068,0,0,0-.688.231,1.127,1.127,0,0,0-.353.783l.013,3.74H38.493v-6.85l2.3-.038v.655a4.584,4.584,0,0,1,1.144-.527,4.294,4.294,0,0,1,1.285-.205A1.886,1.886,0,0,1,44.725,106.329Z" transform="translate(-29.575 -102.3)" fill="#1d1b1c"/>
  <path id="Trazado_5302" data-name="Trazado 5302" d="M58.18,112.726l-.013-.6a2.675,2.675,0,0,1-.86.476,3.167,3.167,0,0,1-1.054.18,2.813,2.813,0,0,1-1.568-.47,3.362,3.362,0,0,1-1.144-1.266,3.659,3.659,0,0,1-.424-1.747,3.6,3.6,0,0,1,.437-1.76,3.252,3.252,0,0,1,2.891-1.71,2.664,2.664,0,0,1,.944.167,1.809,1.809,0,0,1,.713.463V105.9h2.133l.3,6.824Zm-.848-2.275a1.472,1.472,0,0,0,.488-.547,1.531,1.531,0,0,0,.18-.726,1.222,1.222,0,0,0-.34-.881,1.139,1.139,0,0,0-.855-.352,1.4,1.4,0,0,0-.99.4,1.263,1.263,0,0,0-.424.951,1.288,1.288,0,0,0,.186.655,1.476,1.476,0,0,0,.488.514,1.107,1.107,0,0,0,1.266-.013Z" transform="translate(-37.119 -102.369)" fill="#1d1b1c"/>
  <path id="Trazado_5303" data-name="Trazado 5303" d="M83.389,105.918l-1.85,6.85H78.416L76.951,105.9h2.467l.694,3.92.8-3.907Z" transform="translate(-49.413 -102.41)" fill="#1d1b1c"/>
  <path id="Trazado_5304" data-name="Trazado 5304" d="M95.64,106.764a3.569,3.569,0,0,1,.887,2.557c0,.18,0,.317-.013.412l-4.549.051a1.882,1.882,0,0,0,.43.7.985.985,0,0,0,.649.3,1.52,1.52,0,0,0,1.491-.6l1.837.527a2.47,2.47,0,0,1-.642,1.086,3.346,3.346,0,0,1-1.137.751,3.579,3.579,0,0,1-1.369.27,2.019,2.019,0,0,1-.257-.013,3.277,3.277,0,0,1-1.638-.579,3.713,3.713,0,0,1-1.195-1.349,3.833,3.833,0,0,1-.444-1.825,2.624,2.624,0,0,1,.013-.3,2.9,2.9,0,0,1,.52-1.517,3.186,3.186,0,0,1,1.234-1.04,3.8,3.8,0,0,1,1.69-.373A3.263,3.263,0,0,1,95.64,106.764Zm-3.662,1.452,2.172.013a.869.869,0,0,0-.3-.579,1.011,1.011,0,0,0-.572-.231A1.171,1.171,0,0,0,91.978,108.215Z" transform="translate(-55.984 -102.369)" fill="#1d1b1c"/>
  <path id="Trazado_5305" data-name="Trazado 5305" d="M109.739,106.024a2.415,2.415,0,0,1,.771.637l-.887,1.991a1.189,1.189,0,0,0-1.016-.514,1.17,1.17,0,0,0-1.034.495,3.187,3.187,0,0,0-.392,1.613v2.467h-2.39v-6.85h2.39v.591a2.628,2.628,0,0,1,.791-.482,2.4,2.4,0,0,1,.88-.173A1.923,1.923,0,0,1,109.739,106.024Z" transform="translate(-63.774 -102.355)" fill="#1d1b1c"/>
  <path id="Trazado_5306" data-name="Trazado 5306" d="M123.72,98.892v10.177h-2.506v-.719a3.132,3.132,0,0,1-1,.566,3.586,3.586,0,0,1-1.221.218,2.336,2.336,0,0,1-1.414-.482,3.331,3.331,0,0,1-1.04-1.3,4.124,4.124,0,0,1-.386-1.773,3.764,3.764,0,0,1,.4-1.683,3.726,3.726,0,0,1,1.047-1.317,2.24,2.24,0,0,1,1.356-.52,3.43,3.43,0,0,1,2.223.617l-.026-3.984Zm-3.251,7.858a1.581,1.581,0,0,0,.521-.527,1.263,1.263,0,0,0-.219-1.619,1.351,1.351,0,0,0-.97-.4,1.279,1.279,0,0,0-.932.4,1.317,1.317,0,0,0-.219,1.626,1.492,1.492,0,0,0,.5.52,1.2,1.2,0,0,0,.649.2A1.253,1.253,0,0,0,120.469,106.75Z" transform="translate(-69.634 -98.686)" fill="#1d1b1c"/>
  <path id="Trazado_5307" data-name="Trazado 5307" d="M137.8,112.726l-.013-.6a2.675,2.675,0,0,1-.86.476,3.166,3.166,0,0,1-1.054.18,2.814,2.814,0,0,1-1.568-.47,3.358,3.358,0,0,1-1.144-1.266,3.659,3.659,0,0,1-.424-1.747,3.6,3.6,0,0,1,.437-1.76,3.252,3.252,0,0,1,2.891-1.71,2.667,2.667,0,0,1,.945.167,1.813,1.813,0,0,1,.713.463V105.9h2.133l.3,6.824Zm-.848-2.275a1.472,1.472,0,0,0,.488-.547,1.531,1.531,0,0,0,.18-.726,1.22,1.22,0,0,0-.341-.881,1.138,1.138,0,0,0-.855-.352,1.4,1.4,0,0,0-.99.4,1.263,1.263,0,0,0-.424.951,1.283,1.283,0,0,0,.186.655,1.467,1.467,0,0,0,.488.514,1.107,1.107,0,0,0,1.266-.013Z" transform="translate(-78.19 -102.369)" fill="#1d1b1c"/>
  <path id="Trazado_5308" data-name="Trazado 5308" d="M156.047,98.892v10.177h-2.506v-.719a3.132,3.132,0,0,1-1,.566,3.586,3.586,0,0,1-1.221.218,2.337,2.337,0,0,1-1.414-.482,3.335,3.335,0,0,1-1.04-1.3,4.124,4.124,0,0,1-.386-1.773,3.764,3.764,0,0,1,.4-1.683,3.726,3.726,0,0,1,1.047-1.317,2.24,2.24,0,0,1,1.356-.52,3.43,3.43,0,0,1,2.223.617l-.026-3.984ZM152.8,106.75a1.575,1.575,0,0,0,.52-.527,1.264,1.264,0,0,0-.218-1.619,1.353,1.353,0,0,0-.97-.4,1.279,1.279,0,0,0-.932.4,1.317,1.317,0,0,0-.219,1.626,1.492,1.492,0,0,0,.5.52,1.2,1.2,0,0,0,.649.2A1.253,1.253,0,0,0,152.8,106.75Z" transform="translate(-86.309 -98.686)" fill="#1d1b1c"/>
  <path id="Trazado_5309" data-name="Trazado 5309" d="M171.014,106.764a3.569,3.569,0,0,1,.887,2.557c0,.18,0,.317-.013.412l-4.549.051a1.882,1.882,0,0,0,.43.7.987.987,0,0,0,.649.3,1.52,1.52,0,0,0,1.49-.6l1.837.527a2.47,2.47,0,0,1-.642,1.086,3.352,3.352,0,0,1-1.137.751,3.583,3.583,0,0,1-1.369.27,2.018,2.018,0,0,1-.257-.013,3.28,3.28,0,0,1-1.638-.579,3.716,3.716,0,0,1-1.195-1.349,3.832,3.832,0,0,1-.443-1.825,2.645,2.645,0,0,1,.013-.3,2.9,2.9,0,0,1,.52-1.517,3.189,3.189,0,0,1,1.234-1.04,3.808,3.808,0,0,1,1.69-.373A3.262,3.262,0,0,1,171.014,106.764Zm-3.662,1.452,2.171.013a.87.87,0,0,0-.3-.579,1.014,1.014,0,0,0-.572-.231A1.171,1.171,0,0,0,167.352,108.215Z" transform="translate(-94.865 -102.369)" fill="#1d1b1c"/>
  <path id="Trazado_5310" data-name="Trazado 5310" d="M185.113,106.024a2.415,2.415,0,0,1,.771.637L185,108.652a1.188,1.188,0,0,0-1.015-.514,1.169,1.169,0,0,0-1.034.495,3.181,3.181,0,0,0-.393,1.613v2.467h-2.39v-6.85h2.39v.591a2.634,2.634,0,0,1,.791-.482,2.4,2.4,0,0,1,.88-.173A1.921,1.921,0,0,1,185.113,106.024Z" transform="translate(-102.655 -102.355)" fill="#1d1b1c"/>
  <path id="Trazado_5311" data-name="Trazado 5311" d="M196.589,112.726l-.013-.6a2.676,2.676,0,0,1-.86.476,3.167,3.167,0,0,1-1.054.18,2.81,2.81,0,0,1-1.567-.47,3.36,3.36,0,0,1-1.144-1.266,3.659,3.659,0,0,1-.424-1.747,3.6,3.6,0,0,1,.437-1.76,3.252,3.252,0,0,1,2.891-1.71,2.664,2.664,0,0,1,.944.167,1.81,1.81,0,0,1,.713.463V105.9h2.133l.3,6.824Zm-.848-2.275a1.472,1.472,0,0,0,.488-.547,1.531,1.531,0,0,0,.18-.726,1.222,1.222,0,0,0-.34-.881,1.139,1.139,0,0,0-.855-.352,1.4,1.4,0,0,0-.99.4,1.263,1.263,0,0,0-.424.951,1.287,1.287,0,0,0,.186.655,1.476,1.476,0,0,0,.488.514,1.107,1.107,0,0,0,1.266-.013Z" transform="translate(-108.515 -102.369)" fill="#1d1b1c"/>
  <path id="Trazado_5312" data-name="Trazado 5312" d="M220.422,112.726l-.013-.6a2.676,2.676,0,0,1-.86.476,3.167,3.167,0,0,1-1.054.18,2.814,2.814,0,0,1-1.568-.47,3.362,3.362,0,0,1-1.144-1.266,3.658,3.658,0,0,1-.424-1.747,3.6,3.6,0,0,1,.437-1.76,3.252,3.252,0,0,1,2.891-1.71,2.665,2.665,0,0,1,.944.167,1.81,1.81,0,0,1,.713.463V105.9h2.133l.3,6.824Zm-.848-2.275a1.472,1.472,0,0,0,.488-.547,1.531,1.531,0,0,0,.18-.726,1.222,1.222,0,0,0-.34-.881,1.14,1.14,0,0,0-.855-.352,1.4,1.4,0,0,0-.99.4,1.262,1.262,0,0,0-.424.951,1.287,1.287,0,0,0,.186.655,1.471,1.471,0,0,0,.488.514,1.107,1.107,0,0,0,1.266-.013Z" transform="translate(-120.809 -102.369)" fill="#1d1b1c"/>
  <path id="Trazado_5313" data-name="Trazado 5313" d="M242.2,112.7H239.7l-.013-3.573a2.076,2.076,0,0,0-.161-.977.623.623,0,0,0-.584-.27.591.591,0,0,0-.521.391,2.194,2.194,0,0,0-.2,1l.013.244-.013-.038v3.187l-2.416.026-.026-3.56a1.647,1.647,0,0,0-.218-.919.745.745,0,0,0-1.246.019,1.863,1.863,0,0,0-.219.99l.013.269-.013-.026.1,3.252h-2.416v-6.773l2.21-.077.013.514a2.465,2.465,0,0,1,.816-.4,3.736,3.736,0,0,1,1.047-.141,2.424,2.424,0,0,1,1.786.6,1.785,1.785,0,0,1,.848-.514,5.032,5.032,0,0,1,1.375-.154,1.865,1.865,0,0,1,1.742.945,6.469,6.469,0,0,1,.558,3.052Z" transform="translate(-129.283 -102.341)" fill="#1d1b1c"/>
  <path id="Trazado_5314" data-name="Trazado 5314" d="M254.593,101.6a1.638,1.638,0,0,1-.578-.546,1.342,1.342,0,0,1-.225-.745,1.31,1.31,0,0,1,.469-1.028,1.649,1.649,0,0,1,1.125-.412,1.359,1.359,0,0,1,1,.373,1.324,1.324,0,0,1,.379.99,1.59,1.59,0,0,1-.411,1.124,1.345,1.345,0,0,1-1.028.443A1.462,1.462,0,0,1,254.593,101.6Zm-.674.687H256.6V109.1h-2.48Z" transform="translate(-140.633 -98.781)" fill="#1d1b1c"/>
  <path id="Trazado_5315" data-name="Trazado 5315" d="M265.407,108.1a6.174,6.174,0,0,0-1.028-.469,2.763,2.763,0,0,0-.861-.148,1.525,1.525,0,0,0-.636.116c-.167.077-.25.176-.25.3q0,.322.9.321a3.514,3.514,0,0,1,2.043.514,1.647,1.647,0,0,1,.732,1.427,2.109,2.109,0,0,1-.431,1.278,3.015,3.015,0,0,1-1.156.931,3.626,3.626,0,0,1-1.587.348,4.235,4.235,0,0,1-1.619-.316,3.121,3.121,0,0,1-1.221-.841l1.3-1.465a2.236,2.236,0,0,0,.707.417,2.293,2.293,0,0,0,.81.149,1.532,1.532,0,0,0,.674-.136q.277-.135.277-.327a.229.229,0,0,0-.18-.219,2.013,2.013,0,0,0-.6-.064,1.439,1.439,0,0,1-.231.013,2.654,2.654,0,0,1-1.214-.289,2.467,2.467,0,0,1-.919-.778,1.751,1.751,0,0,1,.052-2.158,2.865,2.865,0,0,1,1.066-.829,3.274,3.274,0,0,1,1.414-.315,4.066,4.066,0,0,1,1.5.3,4.826,4.826,0,0,1,1.369.823Z" transform="translate(-143.987 -102.232)" fill="#1d1b1c"/>
  <path id="Trazado_5316" data-name="Trazado 5316" d="M279.03,109.949a2.68,2.68,0,0,1-1.035.932,3.333,3.333,0,0,1-1.484.3,2.327,2.327,0,0,1-1.748-.6,2.69,2.69,0,0,1-.578-1.921,9.619,9.619,0,0,1,.064-.977l.18-1.477h-1.015l-.091-2.031,1.362-.026.18-1.5,2.287-.116-.18,1.593,1.439-.026.244,2.1H276.73l-.129,1.156c-.017.154-.026.265-.026.334a1.469,1.469,0,0,0,.193.81.586.586,0,0,0,.514.3,1.108,1.108,0,0,0,.566-.141,2.155,2.155,0,0,0,.539-.5Z" transform="translate(-150.709 -100.671)" fill="#1d1b1c"/>
  <path id="Trazado_5317" data-name="Trazado 5317" d="M290.224,112.726l-.013-.6a2.674,2.674,0,0,1-.86.476,3.167,3.167,0,0,1-1.054.18,2.813,2.813,0,0,1-1.568-.47,3.359,3.359,0,0,1-1.144-1.266,3.659,3.659,0,0,1-.425-1.747,3.6,3.6,0,0,1,.437-1.76,3.254,3.254,0,0,1,2.891-1.71,2.669,2.669,0,0,1,.945.167,1.812,1.812,0,0,1,.713.463V105.9h2.133l.3,6.824Zm-.847-2.275a1.472,1.472,0,0,0,.488-.547,1.537,1.537,0,0,0,.18-.726,1.22,1.22,0,0,0-.34-.881,1.138,1.138,0,0,0-.855-.352,1.4,1.4,0,0,0-.99.4,1.263,1.263,0,0,0-.424.951,1.283,1.283,0,0,0,.187.655,1.468,1.468,0,0,0,.488.514,1.107,1.107,0,0,0,1.266-.013Z" transform="translate(-156.815 -102.369)" fill="#1d1b1c"/>
  <path id="Trazado_5318" data-name="Trazado 5318" d="M308.469,98.892v10.177h-2.506v-.719a3.132,3.132,0,0,1-1,.566,3.588,3.588,0,0,1-1.221.218,2.336,2.336,0,0,1-1.413-.482,3.336,3.336,0,0,1-1.041-1.3,4.122,4.122,0,0,1-.385-1.773,3.916,3.916,0,0,1,1.445-3,2.243,2.243,0,0,1,1.356-.52,3.43,3.43,0,0,1,2.223.617l-.026-3.984Zm-3.251,7.858a1.579,1.579,0,0,0,.521-.527,1.263,1.263,0,0,0-.219-1.619,1.351,1.351,0,0,0-.97-.4,1.279,1.279,0,0,0-.932.4,1.317,1.317,0,0,0-.219,1.626,1.492,1.492,0,0,0,.5.52,1.2,1.2,0,0,0,.649.2A1.253,1.253,0,0,0,305.218,106.75Z" transform="translate(-164.934 -98.686)" fill="#1d1b1c"/>
</svg>
