<svg xmlns="http://www.w3.org/2000/svg" width="50" height="49.998" viewBox="0 0 50 49.998">
  <g id="Layer_4" data-name="Layer 4" transform="translate(-4 -4)">
    <path id="Trazado_5485" data-name="Trazado 5485" d="M46.857,4H11.143A7.143,7.143,0,0,0,4,11.143V32.571a7.143,7.143,0,0,0,5.9,7.045,1.464,1.464,0,0,1,1.241,1.411v4.241a.661.661,0,0,0,1.125.464l5.518-5.509a1.786,1.786,0,0,1,1.232-.509H29V33.554a4.661,4.661,0,0,1,4.125-4.634,17.589,17.589,0,0,0,4.464-1.205,19.223,19.223,0,0,0,2.929-1.482,5.3,5.3,0,0,1,5.625,0,19.214,19.214,0,0,0,2.929,1.482,17.589,17.589,0,0,0,4.464,1.205A4.608,4.608,0,0,1,54,29V11.143A7.143,7.143,0,0,0,46.857,4ZM23.643,32.571H14.714a1.786,1.786,0,0,1,0-3.571h8.929a1.786,1.786,0,1,1,0,3.571Zm19.643-8.929H14.714a1.786,1.786,0,0,1,0-3.571H43.286a1.786,1.786,0,1,1,0,3.571Zm0-8.929H14.714a1.786,1.786,0,1,1,0-3.571H43.286a1.786,1.786,0,1,1,0,3.571Z" transform="translate(0)" fill="#1209e0"/>
    <path id="Trazado_5486" data-name="Trazado 5486" d="M56.464,35.47a20.991,20.991,0,0,1-5.357-1.446,22.884,22.884,0,0,1-3.473-1.786,1.732,1.732,0,0,0-1.839,0,22.884,22.884,0,0,1-3.473,1.786,20.991,20.991,0,0,1-5.357,1.446A1.089,1.089,0,0,0,36,36.551V47.5a5.8,5.8,0,0,0,2.58,4.821l6.08,4.054a3.7,3.7,0,0,0,4.107,0l6.08-4.054a5.8,5.8,0,0,0,2.58-4.821V36.551a1.214,1.214,0,0,0-.964-1.089Zm-4.92,7.839L47.3,47.551a1.786,1.786,0,0,1-2.33.17l-1.83-1.437a1.786,1.786,0,1,1,2.143-2.857l.625.464,1.179-1.179,1.929-1.929a1.787,1.787,0,1,1,2.527,2.527Z" transform="translate(-3.429 -2.997)" fill="#1209e0"/>
  </g>
</svg>
