<svg xmlns="http://www.w3.org/2000/svg" width="70" height="70" viewBox="0 0 70 70">
  <g id="Grupo_1750" data-name="Grupo 1750" transform="translate(0 0)">
    <g id="diagnostic" transform="translate(0 0)">
      <g id="Grupo_447" data-name="Grupo 447">
        <g id="Grupo_446" data-name="Grupo 446">
          <path id="Trazado_1440" data-name="Trazado 1440" d="M238.951,128H208v51.936h40.645V137.694Zm.662,4.516v-.662l5.178,5.178h-5.178Zm2.258,6.774v20.323h-27.1V134.774h22.581v2.258h-1.129a7.873,7.873,0,0,0-7.575,4.533c-.111,0-.218-.017-.328-.017s-.218.012-.329.017a7.873,7.873,0,0,0-7.575-4.533H219.29v1.129c0,.564.066,5.129,1.919,7.868a7.9,7.9,0,1,0,14.226,0c1.854-2.739,1.919-7.3,1.919-7.868v1.129Zm-13.548,4.516a5.645,5.645,0,1,1-5.645,5.645A5.652,5.652,0,0,1,228.323,143.806Zm-5.686.169a14.826,14.826,0,0,1-1.033-4.6,5.391,5.391,0,0,1,4.078,2.638A7.9,7.9,0,0,0,222.637,143.976Zm8.327-1.963a5.408,5.408,0,0,1,4.078-2.639,14.817,14.817,0,0,1-1.033,4.6A7.906,7.906,0,0,0,230.964,142.012Zm15.424,35.665H210.258V130.258h27.1v2.258H212.516v29.355h31.613V139.29h2.258Z" transform="translate(-178.645 -109.935)" fill="#353631"/>
          <rect id="Rectángulo_38" data-name="Rectángulo 38" width="31.391" height="2.265" transform="translate(33.98 54.143)" fill="#353631"/>
          <rect id="Rectángulo_39" data-name="Rectángulo 39" width="31.391" height="2.265" transform="translate(33.98 58.673)" fill="#353631"/>
          <rect id="Rectángulo_40" data-name="Rectángulo 40" width="2.265" height="2.265" transform="translate(63.106 63.204)" fill="#353631"/>
          <rect id="Rectángulo_41" data-name="Rectángulo 41" width="13.268" height="2.265" transform="translate(47.572 63.204)" fill="#353631"/>
          <path id="Trazado_1441" data-name="Trazado 1441" d="M22.581,29.355A6.77,6.77,0,0,0,21.452,42.8V64.355a3.387,3.387,0,0,1-6.774,0V27.039A13.56,13.56,0,0,0,27.1,13.548V2.258H22.373a3.387,3.387,0,1,0,0,2.258h2.466v9.032a11.29,11.29,0,1,1-22.581,0V4.516H4.724a3.387,3.387,0,1,0,0-2.258H0v11.29A13.56,13.56,0,0,0,12.419,27.039V64.355a5.645,5.645,0,0,0,11.29,0V42.8a6.77,6.77,0,0,0-1.129-13.447ZM19.194,4.516a1.129,1.129,0,1,1,1.129-1.129A1.131,1.131,0,0,1,19.194,4.516ZM7.9,2.258A1.129,1.129,0,1,1,6.774,3.387,1.131,1.131,0,0,1,7.9,2.258ZM22.581,40.645A4.516,4.516,0,1,1,27.1,36.129,4.521,4.521,0,0,1,22.581,40.645Z" fill="#353631"/>
        </g>
      </g>
    </g>
  </g>
</svg>
