<svg xmlns="http://www.w3.org/2000/svg" width="107.886" height="28.016" viewBox="0 0 107.886 28.016">
  <g id="Artwork_3" data-name="Artwork 3" transform="translate(66.917 17.437)">
    <g id="Grupo_1980" data-name="Grupo 1980" transform="translate(-66.917 -17.437)">
      <circle id="Elipse_636" data-name="Elipse 636" cx="14.008" cy="14.008" r="14.008" transform="translate(79.87)" fill="#fff"/>
      <g id="Grupo_1977" data-name="Grupo 1977" transform="translate(0 0.005)">
        <path id="Trazado_5295" data-name="Trazado 5295" d="M108.356,19.97a9.15,9.15,0,0,1,2.271,6.55q0,.343-.008.6a.469.469,0,0,1-.465.454l-10.5.119a.472.472,0,0,0-.415.685,4.48,4.48,0,0,0,.807,1.117,2.532,2.532,0,0,0,1.662.773,4.174,4.174,0,0,0,3.3-.938,1.5,1.5,0,0,1,1.436-.346l2.793.8a.925.925,0,0,1,.591,1.352,6.625,6.625,0,0,1-1.239,1.715,8.6,8.6,0,0,1-2.913,1.925,9.2,9.2,0,0,1-3.505.691,5.011,5.011,0,0,1-.658-.033,8.394,8.394,0,0,1-4.2-1.481A9.509,9.509,0,0,1,94.253,30.5a9.812,9.812,0,0,1-1.136-4.674,6.474,6.474,0,0,1,.033-.757,7.4,7.4,0,0,1,1.333-3.884,8.144,8.144,0,0,1,3.16-2.666,9.746,9.746,0,0,1,4.328-.955A8.364,8.364,0,0,1,108.356,19.97Zm-8.62,3.724,4.194.025a.468.468,0,0,0,.447-.628,2.052,2.052,0,0,0-.613-.849,2.587,2.587,0,0,0-1.465-.592,2.957,2.957,0,0,0-2.964,1.329A.47.47,0,0,0,99.736,23.693Z" transform="translate(-71.597 -13.512)" fill="#1d1a1a"/>
        <path id="Trazado_5296" data-name="Trazado 5296" d="M182.488,18.762a.46.46,0,0,1-.056.421,6.768,6.768,0,0,1-2.513,2.19,8.514,8.514,0,0,1-3.8.773,5.963,5.963,0,0,1-4.476-1.53q-1.481-1.531-1.481-4.921a24.647,24.647,0,0,1,.165-2.5l.4-3.271a.459.459,0,0,0-.455-.514h-1.644a.459.459,0,0,1-.458-.438l-.19-4.292a.459.459,0,0,1,.449-.479l2.619-.049a.459.459,0,0,0,.447-.4l.367-3.07a.459.459,0,0,1,.432-.4l4.933-.25a.458.458,0,0,1,.479.51l-.342,3.025a.459.459,0,0,0,.464.51l2.748-.049a.459.459,0,0,1,.464.405l.517,4.44a.458.458,0,0,1-.455.512h-4.011a.459.459,0,0,0-.456.408l-.284,2.554q-.067.592-.066.856a3.764,3.764,0,0,0,.494,2.073,1.506,1.506,0,0,0,1.317.757,2.834,2.834,0,0,0,1.448-.362,4.259,4.259,0,0,0,.887-.726.457.457,0,0,1,.755.17Z" transform="translate(-129.156 -0.022)" fill="#1d1a1a"/>
        <path id="Trazado_5297" data-name="Trazado 5297" d="M.065,19.371A.661.661,0,0,1,.7,18.731l.347-.011L8.5,18.259a.664.664,0,0,1,.663.436q.287.782.511,1.613.292,1.082.5,2.179t.345,2.156q.138,1.059.23,2.01.147,1.79.177,3.55a.662.662,0,0,0,1.022.538,2.607,2.607,0,0,0,.244-.176,2.948,2.948,0,0,0,.476-.5,3.5,3.5,0,0,0,.422-.744A5.416,5.416,0,0,0,13.4,28.28a8.705,8.705,0,0,0,.153-1.381,13.021,13.021,0,0,0-.031-1.527q-.062-.82-.169-1.649T13.1,22.1q-.146-.79-.3-1.434t-.307-1.1l0-.009a.662.662,0,0,1,.442-.854q.3-.085.635-.158.675-.153,1.688-.284a19.2,19.2,0,0,1,2.409-.13,3.4,3.4,0,0,1,1.565.338,2.988,2.988,0,0,1,1.089.944,4.225,4.225,0,0,1,.637,1.45,7.782,7.782,0,0,1,.207,1.856,17.616,17.616,0,0,1-.437,4.067,14.242,14.242,0,0,1-1.2,3.3,10.836,10.836,0,0,1-1.8,2.54,10.657,10.657,0,0,1-2.271,1.8,10.146,10.146,0,0,1-2.578,1.074,10.7,10.7,0,0,1-2.716.353,5.309,5.309,0,0,1-1.228-.153q-.645-.154-1.3-.33t-1.289-.292a3.78,3.78,0,0,0-.642-.064.664.664,0,0,1-.649-.513q-.436-1.925-.918-3.9-.246-.967-.522-2.033t-.591-2.171Q2.709,25.3,2.372,24.2q-.262-.855-.532-1.654a.659.659,0,0,0-.649-.446l-.507.018A.661.661,0,0,1,0,21.435Z" transform="translate(0 -13.951)" fill="#1d1a1a"/>
        <path id="Trazado_5298" data-name="Trazado 5298" d="M249.543,6.791c-.459.1-2.046.452-2.466.573a.207.207,0,0,0-.147.232q.058.372.176.975c.1.509.637,3.266.831,3.9s.439,1.308.736,2.02a11.414,11.414,0,0,0,1.122,2.054,5.392,5.392,0,0,0,1.216,1.209,11.241,11.241,0,0,0,1.816,1.106.211.211,0,0,1,.113.243,6.037,6.037,0,0,1-.39,1.015,4.449,4.449,0,0,1-.783,1.128,3.961,3.961,0,0,1-1.176.845,3.681,3.681,0,0,1-1.608.331,8.705,8.705,0,0,1-1.473-.135,7.842,7.842,0,0,1-1.554-.439,7.425,7.425,0,0,1-1.48-.79,5.423,5.423,0,0,1-1.243-1.182,5.765,5.765,0,0,1-.858-1.621,6.331,6.331,0,0,1-.324-2.1q0-.73.02-1.372h0a.211.211,0,0,0-.407-.086q-.127.336-.228.681A16.858,16.858,0,0,0,241,17.3q-.162.966-.243,1.919t-.148,1.831a1.539,1.539,0,0,1-.142.459,1.357,1.357,0,0,1-.351.446,1.864,1.864,0,0,1-.608.331,2.722,2.722,0,0,1-.885.128,7.713,7.713,0,0,1-1.061-.061,7.012,7.012,0,0,1-.763-.149c-.225-.059-.437-.122-.635-.189a6.141,6.141,0,0,0-.669-.182,8.313,8.313,0,0,0-.871-.135,9.438,9.438,0,0,0-1.03-.043.211.211,0,0,1-.213-.21l.026-20.371a.21.21,0,0,1,.2-.21l5.757-.377a1.311,1.311,0,0,1,1.393,1.383q-.11,1.95-.2,3.749-.054,1.054-.1,2.148t-.088,2.094q-.04,1-.061,1.858c0,.1,0,.2-.007.3a.207.207,0,0,0,.394.093c.207-.43.508-2.424.77-3.249a4.541,4.541,0,0,1,1.511-2.241,9.85,9.85,0,0,1,2.52-1.446,17.094,17.094,0,0,1,3.566-.784.694.694,0,0,1,.709.5l.3,1.045A.683.683,0,0,1,249.543,6.791Z" transform="translate(-179.445 -0.375)" fill="#1d1a1a"/>
        <path id="Trazado_5299" data-name="Trazado 5299" d="M331.328,22.372a3.1,3.1,0,0,1,1.509.593,4.1,4.1,0,0,1,1.089,1.231,6.484,6.484,0,0,1,.676,1.689,9.06,9.06,0,0,1,.27,1.967,8.82,8.82,0,0,1-.18,2.057,6.282,6.282,0,0,1-2.072,3.513,8.023,8.023,0,0,1-2.072,1.277,12.724,12.724,0,0,1-2.89.833,22.08,22.08,0,0,1-3.806.293,13.782,13.782,0,0,1-4.549-.631,6.42,6.42,0,0,1-2.777-1.794,6.317,6.317,0,0,1-1.374-2.793A15.338,15.338,0,0,1,314.812,27a9.4,9.4,0,0,1,.751-3.843,7.037,7.037,0,0,1,2.057-2.665,8.756,8.756,0,0,1,3.176-1.547,15.671,15.671,0,0,1,4.107-.5q5.51,0,7.838,2.913ZM326.7,27.507q-.015-.481-.022-.931t.022-.886l-.12.09q-.105-.316-.218-.6a2.094,2.094,0,0,0-.285-.511,1.258,1.258,0,0,0-.443-.36,1.544,1.544,0,0,0-.69-.135,1.477,1.477,0,0,0-.736.195,1.646,1.646,0,0,0-.6.646,4.227,4.227,0,0,0-.412,1.164,8.226,8.226,0,0,0-.158,1.749,5.411,5.411,0,0,0,.436,2.432,1.355,1.355,0,0,0,1.246.84,1.4,1.4,0,0,0,.938-.323,2.378,2.378,0,0,0,.623-.848,4.389,4.389,0,0,0,.338-1.186A7.882,7.882,0,0,0,326.7,27.507Z" transform="translate(-242.057 -14.182)" fill="#1d1a1a"/>
      </g>
      <g id="Grupo_1979" data-name="Grupo 1979" transform="translate(92.541 16.553)">
        <path id="Trazado_5319" data-name="Trazado 5319" d="M401.1,86.832a.517.517,0,0,1,.406.139.57.57,0,0,1,.122.389,1.2,1.2,0,0,1-.027.234.725.725,0,0,1-.1.244.6.6,0,0,1-.2.19.652.652,0,0,1-.339.078.475.475,0,0,1-.42-.159.687.687,0,0,1-.108-.4,1.029,1.029,0,0,1,.034-.264.681.681,0,0,1,.108-.23.522.522,0,0,1,.2-.162A.735.735,0,0,1,401.1,86.832Z" transform="translate(-400.433 -83.318)" fill="#1d1a1a"/>
        <path id="Trazado_5320" data-name="Trazado 5320" d="M413.034,75.641a1.166,1.166,0,0,1,.958.393,1.944,1.944,0,0,1,.321,1.239,3.33,3.33,0,0,1-.122.941,2.18,2.18,0,0,1-.339.7,1.475,1.475,0,0,1-.508.437,1.363,1.363,0,0,1-.63.149.9.9,0,0,1-.562-.156,1.025,1.025,0,0,1-.318-.44c-.013.162-.025.287-.034.372s-.016.155-.02.207-.008.1-.01.139-.007.095-.014.162-.015.16-.024.278-.023.28-.04.487a.177.177,0,0,1-.034.108.171.171,0,0,1-.115.027H411.3a1.112,1.112,0,0,1-.342-.044.507.507,0,0,1-.21-.126.44.44,0,0,1-.108-.2,1.1,1.1,0,0,1-.031-.274q0-.068.02-.366t.051-.714q.03-.416.068-.9t.071-.918q.034-.437.057-.775t.037-.467a.348.348,0,0,1,.034-.176.178.178,0,0,1,.108-.021h.264a.772.772,0,0,1,.532.153.478.478,0,0,1,.166.362.993.993,0,0,1,.4-.446A1.259,1.259,0,0,1,413.034,75.641Zm-.494.9a.539.539,0,0,0-.508.3,1.7,1.7,0,0,0-.163.812,2.483,2.483,0,0,0,.023.345,1.119,1.119,0,0,0,.085.3.559.559,0,0,0,.166.217.422.422,0,0,0,.267.081.58.58,0,0,0,.488-.284,1.6,1.6,0,0,0,.2-.894,2.241,2.241,0,0,0-.024-.328.935.935,0,0,0-.085-.281.515.515,0,0,0-.169-.2A.479.479,0,0,0,412.54,76.541Z" transform="translate(-408.258 -74.714)" fill="#1d1a1a"/>
        <path id="Trazado_5321" data-name="Trazado 5321" d="M429.782,79.5a2.425,2.425,0,0,1-.593-.074,1.411,1.411,0,0,1-.528-.257,1.371,1.371,0,0,1-.383-.488,1.736,1.736,0,0,1-.149-.765,3.733,3.733,0,0,1,.027-.407,2.711,2.711,0,0,1,.1-.487,2.6,2.6,0,0,1,.217-.5,1.692,1.692,0,0,1,.362-.443,1.763,1.763,0,0,1,.542-.318,2.117,2.117,0,0,1,.758-.122,1.9,1.9,0,0,1,.6.081,1.065,1.065,0,0,1,.393.22.829.829,0,0,1,.217.322,1.123,1.123,0,0,1,.068.392,1.041,1.041,0,0,1-.125.528,1.155,1.155,0,0,1-.325.362,1.616,1.616,0,0,1-.443.227,3.586,3.586,0,0,1-.481.125,3.335,3.335,0,0,1-.437.055c-.133.006-.236.01-.308.01a.885.885,0,0,0,.037.254.659.659,0,0,0,.112.22.571.571,0,0,0,.2.156.662.662,0,0,0,.3.061.549.549,0,0,0,.274-.058.624.624,0,0,0,.159-.129c.041-.047.075-.09.1-.128a.142.142,0,0,1,.119-.058.718.718,0,0,1,.119.017.528.528,0,0,1,.172.071.542.542,0,0,1,.156.149.411.411,0,0,1,.068.244.5.5,0,0,1-.122.338.9.9,0,0,1-.315.231,1.75,1.75,0,0,1-.43.129A2.751,2.751,0,0,1,429.782,79.5Zm.129-2.959a.393.393,0,0,0-.254.085.71.71,0,0,0-.176.213,1.12,1.12,0,0,0-.108.284c-.025.1-.044.2-.058.3A1.523,1.523,0,0,0,430,77.28a.421.421,0,0,0,.261-.386.387.387,0,0,0-.085-.244A.311.311,0,0,0,429.911,76.541Z" transform="translate(-421.729 -74.714)" fill="#1d1a1a"/>
        <path id="Trazado_5322" data-name="Trazado 5322" d="M444.834,73.537q-.02.258-.044.508t-.044.474q-.02.224-.03.4c-.007.117-.01.208-.01.271a.452.452,0,0,0,.04.233.154.154,0,0,0,.136.058.284.284,0,0,0,.129-.027.752.752,0,0,0,.1-.061l.085-.061a.142.142,0,0,1,.085-.027.113.113,0,0,1,.088.055.481.481,0,0,1,.041.25.828.828,0,0,1-.2.589.927.927,0,0,1-.7.217,1,1,0,0,1-.721-.226.929.929,0,0,1-.234-.694c0-.068,0-.148.01-.24s.017-.213.031-.363.03-.332.05-.548.042-.485.065-.806h-.359c-.037,0-.058-.008-.065-.024a.19.19,0,0,1-.01-.071l.02-.345a1.521,1.521,0,0,1,.024-.173.374.374,0,0,1,.068-.152.348.348,0,0,1,.146-.108.638.638,0,0,1,.25-.041q.047-.122.108-.291t.122-.328a2.367,2.367,0,0,1,.118-.267c.038-.072.073-.108.1-.108h.2a.423.423,0,0,1,.393.176.787.787,0,0,1,.108.42c0,.09-.007.223-.02.4h.711c.072,0,.108.032.108.1l-.027.366a.583.583,0,0,1-.112.328.5.5,0,0,1-.4.125Z" transform="translate(-433.376 -71.628)" fill="#1d1a1a"/>
      </g>
    </g>
  </g>
</svg>
