<svg xmlns="http://www.w3.org/2000/svg" width="20" height="20" viewBox="0 0 20 20">
  <path id="streamlinehq-youtube-clip-videos" d="M4.636,1A3.636,3.636,0,0,0,1,4.636V17.364A3.636,3.636,0,0,0,4.636,21H17.364A3.636,3.636,0,0,0,21,17.364V4.636A3.636,3.636,0,0,0,17.364,1ZM4.182,11c0-.977.046-1.9.106-2.67A2.31,2.31,0,0,1,6.433,6.186c1.1-.078,2.606-.145,4.567-.145s3.466.066,4.567.145A2.31,2.31,0,0,1,17.712,8.33c.06.773.106,1.693.106,2.67,0,1.012-.049,1.963-.113,2.752a2.21,2.21,0,0,1-2.056,2.064c-1.112.077-2.669.143-4.649.143s-3.537-.065-4.649-.143a2.21,2.21,0,0,1-2.056-2.064C4.231,12.963,4.182,12.012,4.182,11ZM9.306,8.686,13.169,11,9.306,13.314Z" transform="translate(-1 -1)" fill="#353631" fill-rule="evenodd"/>
</svg>
